  0
SECTION
  2
HEADER
  9
$ACADVER
  1
AC1009
  9
$FILLMODE
 70
 0
  9
$SPLFRAME
 70
 1
  9
$EXTMIN
 10
0
 20
0
 30
0.0
  9
$EXTMAX
 10
1058.33
 20
1058.33
 30
0.0
  0
ENDSEC
  0
SECTION
  2
TABLES
  0
TABLE
  2
LAYER
 70
1
  0
LAYER
  2
0
 70
     0
 62
     7
  6
CONTINUOUS
  0
ENDTAB
  0
ENDSEC
  0
SECTION
  2
ENTITIES
  0
LINE
  8
0
 62
     0
 10
0.0950846
 20
76.4575
 30
0.0
 11
57.2453
 21
76.4575
 31
0.0
  0
LINE
  8
0
 62
     0
 10
57.2453
 20
76.4575
 30
0.0
 11
57.2453
 21
0.257693
 31
0.0
  0
LINE
  8
0
 62
     0
 10
57.2453
 20
0.257693
 30
0.0
 11
0.0950846
 21
0.257693
 31
0.0
  0
LINE
  8
0
 62
     0
 10
0.0950846
 20
0.257693
 30
0.0
 11
0.0950846
 21
76.4575
 31
0.0
  0
LINE
  8
0
 62
     0
 10
12.1447
 20
16.7831
 30
0.0
 11
12.1447
 21
12.0826
 31
0.0
  0
LINE
  8
0
 62
     0
 10
12.1447
 20
12.0826
 30
0.0
 11
10.6192
 21
12.0826
 31
0.0
  0
LINE
  8
0
 62
     0
 10
10.6192
 20
12.0826
 30
0.0
 11
10.6192
 21
15.3128
 31
0.0
  0
LINE
  8
0
 62
     0
 10
10.6192
 20
15.3128
 30
0.0
 11
8.89385
 21
15.3128
 31
0.0
  0
LINE
  8
0
 62
     0
 10
8.89385
 20
15.3128
 30
0.0
 11
8.89385
 21
16.2347
 31
0.0
  0
LINE
  8
0
 62
     0
 10
8.89385
 20
16.2347
 30
0.0
 11
5.59484
 21
16.2347
 31
0.0
  0
LINE
  8
0
 62
     0
 10
5.59484
 20
16.2347
 30
0.0
 11
5.59484
 21
15.3128
 31
0.0
  0
LINE
  8
0
 62
     0
 10
5.59484
 20
15.3128
 30
0.0
 11
3.86955
 21
15.3128
 31
0.0
  0
LINE
  8
0
 62
     0
 10
3.86955
 20
15.3128
 30
0.0
 11
3.86955
 21
12.0826
 31
0.0
  0
LINE
  8
0
 62
     0
 10
3.86955
 20
12.0826
 30
0.0
 11
3.04409
 21
12.0826
 31
0.0
  0
LINE
  8
0
 62
     0
 10
3.04409
 20
12.0826
 30
0.0
 11
3.04409
 21
9.28384
 31
0.0
  0
LINE
  8
0
 62
     0
 10
3.04409
 20
9.28384
 30
0.0
 11
3.86955
 21
9.28384
 31
0.0
  0
LINE
  8
0
 62
     0
 10
3.86955
 20
9.28384
 30
0.0
 11
3.86955
 21
3.01377
 31
0.0
  0
LINE
  8
0
 62
     0
 10
3.86955
 20
3.01377
 30
0.0
 11
5.59484
 21
3.01377
 31
0.0
  0
LINE
  8
0
 62
     0
 10
5.59484
 20
3.01377
 30
0.0
 11
5.59484
 21
2.03261
 31
0.0
  0
LINE
  8
0
 62
     0
 10
5.59484
 20
2.03261
 30
0.0
 11
8.89385
 21
2.03261
 31
0.0
  0
LINE
  8
0
 62
     0
 10
8.89385
 20
2.03261
 30
0.0
 11
8.89385
 21
3.01377
 31
0.0
  0
LINE
  8
0
 62
     0
 10
8.89385
 20
3.01377
 30
0.0
 11
10.6192
 21
3.01377
 31
0.0
  0
LINE
  8
0
 62
     0
 10
10.6192
 20
3.01377
 30
0.0
 11
10.6192
 21
7.48273
 31
0.0
  0
LINE
  8
0
 62
     0
 10
10.6192
 20
7.48273
 30
0.0
 11
12.1447
 21
7.48273
 31
0.0
  0
LINE
  8
0
 62
     0
 10
12.1447
 20
7.48273
 30
0.0
 11
12.1447
 21
2.78364
 31
0.0
  0
LINE
  8
0
 62
     0
 10
12.1447
 20
2.78364
 30
0.0
 11
26.1441
 21
2.78364
 31
0.0
  0
LINE
  8
0
 62
     0
 10
26.1441
 20
2.78364
 30
0.0
 11
26.1441
 21
7.48273
 31
0.0
  0
LINE
  8
0
 62
     0
 10
26.1441
 20
7.48273
 30
0.0
 11
27.6696
 21
7.48273
 31
0.0
  0
LINE
  8
0
 62
     0
 10
27.6696
 20
7.48273
 30
0.0
 11
27.6696
 21
3.01377
 31
0.0
  0
LINE
  8
0
 62
     0
 10
27.6696
 20
3.01377
 30
0.0
 11
29.3949
 21
3.01377
 31
0.0
  0
LINE
  8
0
 62
     0
 10
29.3949
 20
3.01377
 30
0.0
 11
29.3949
 21
2.03261
 31
0.0
  0
LINE
  8
0
 62
     0
 10
29.3949
 20
2.03261
 30
0.0
 11
32.694
 21
2.03261
 31
0.0
  0
LINE
  8
0
 62
     0
 10
32.694
 20
2.03261
 30
0.0
 11
32.694
 21
3.01377
 31
0.0
  0
LINE
  8
0
 62
     0
 10
32.694
 20
3.01377
 30
0.0
 11
34.4193
 21
3.01377
 31
0.0
  0
LINE
  8
0
 62
     0
 10
34.4193
 20
3.01377
 30
0.0
 11
34.4193
 21
9.28384
 31
0.0
  0
LINE
  8
0
 62
     0
 10
34.4193
 20
9.28384
 30
0.0
 11
35.2447
 21
9.28384
 31
0.0
  0
LINE
  8
0
 62
     0
 10
35.2447
 20
9.28384
 30
0.0
 11
35.2447
 21
12.0826
 31
0.0
  0
LINE
  8
0
 62
     0
 10
35.2447
 20
12.0826
 30
0.0
 11
34.4193
 21
12.0826
 31
0.0
  0
LINE
  8
0
 62
     0
 10
34.4193
 20
12.0826
 30
0.0
 11
34.4193
 21
15.3128
 31
0.0
  0
LINE
  8
0
 62
     0
 10
34.4193
 20
15.3128
 30
0.0
 11
32.694
 21
15.3128
 31
0.0
  0
LINE
  8
0
 62
     0
 10
32.694
 20
15.3128
 30
0.0
 11
32.694
 21
16.2347
 31
0.0
  0
LINE
  8
0
 62
     0
 10
32.694
 20
16.2347
 30
0.0
 11
29.3949
 21
16.2347
 31
0.0
  0
LINE
  8
0
 62
     0
 10
29.3949
 20
16.2347
 30
0.0
 11
29.3949
 21
15.3128
 31
0.0
  0
LINE
  8
0
 62
     0
 10
29.3949
 20
15.3128
 30
0.0
 11
27.6696
 21
15.3128
 31
0.0
  0
LINE
  8
0
 62
     0
 10
27.6696
 20
15.3128
 30
0.0
 11
27.6696
 21
12.0826
 31
0.0
  0
LINE
  8
0
 62
     0
 10
27.6696
 20
12.0826
 30
0.0
 11
26.1441
 21
12.0826
 31
0.0
  0
LINE
  8
0
 62
     0
 10
26.1441
 20
12.0826
 30
0.0
 11
26.1441
 21
16.7831
 31
0.0
  0
LINE
  8
0
 62
     0
 10
26.1441
 20
16.7831
 30
0.0
 11
12.1447
 21
16.7831
 31
0.0
  0
LINE
  8
0
 62
     0
 10
40.7197
 20
16.7831
 30
0.0
 11
54.719
 21
16.7831
 31
0.0
  0
LINE
  8
0
 62
     0
 10
54.719
 20
16.7831
 30
0.0
 11
54.719
 21
2.78364
 31
0.0
  0
LINE
  8
0
 62
     0
 10
54.719
 20
2.78364
 30
0.0
 11
40.7197
 21
2.78364
 31
0.0
  0
LINE
  8
0
 62
     0
 10
40.7197
 20
2.78364
 30
0.0
 11
40.7197
 21
16.7831
 31
0.0
  0
LINE
  8
0
 62
     0
 10
2.61965
 20
35.833
 30
0.0
 11
16.6192
 21
35.833
 31
0.0
  0
LINE
  8
0
 62
     0
 10
16.6192
 20
35.833
 30
0.0
 11
16.6192
 21
21.8336
 31
0.0
  0
LINE
  8
0
 62
     0
 10
16.6192
 20
21.8336
 30
0.0
 11
2.61965
 21
21.8336
 31
0.0
  0
LINE
  8
0
 62
     0
 10
2.61965
 20
21.8336
 30
0.0
 11
2.61965
 21
35.833
 31
0.0
  0
LINE
  8
0
 62
     0
 10
21.6697
 20
35.833
 30
0.0
 11
35.669
 21
35.833
 31
0.0
  0
LINE
  8
0
 62
     0
 10
35.669
 20
35.833
 30
0.0
 11
35.669
 21
21.8336
 31
0.0
  0
LINE
  8
0
 62
     0
 10
35.669
 20
21.8336
 30
0.0
 11
21.6697
 21
21.8336
 31
0.0
  0
LINE
  8
0
 62
     0
 10
21.6697
 20
21.8336
 30
0.0
 11
21.6697
 21
35.833
 31
0.0
  0
LINE
  8
0
 62
     0
 10
40.7197
 20
35.833
 30
0.0
 11
54.719
 21
35.833
 31
0.0
  0
LINE
  8
0
 62
     0
 10
54.719
 20
35.833
 30
0.0
 11
54.719
 21
21.8336
 31
0.0
  0
LINE
  8
0
 62
     0
 10
54.719
 20
21.8336
 30
0.0
 11
40.7197
 21
21.8336
 31
0.0
  0
LINE
  8
0
 62
     0
 10
40.7197
 20
21.8336
 30
0.0
 11
40.7197
 21
35.833
 31
0.0
  0
LINE
  8
0
 62
     0
 10
2.61965
 20
54.8831
 30
0.0
 11
16.6192
 21
54.8831
 31
0.0
  0
LINE
  8
0
 62
     0
 10
16.6192
 20
54.8831
 30
0.0
 11
16.6192
 21
40.8838
 31
0.0
  0
LINE
  8
0
 62
     0
 10
16.6192
 20
40.8838
 30
0.0
 11
2.61965
 21
40.8838
 31
0.0
  0
LINE
  8
0
 62
     0
 10
2.61965
 20
40.8838
 30
0.0
 11
2.61965
 21
54.8831
 31
0.0
  0
LINE
  8
0
 62
     0
 10
21.6697
 20
54.8831
 30
0.0
 11
35.669
 21
54.8831
 31
0.0
  0
LINE
  8
0
 62
     0
 10
35.669
 20
54.8831
 30
0.0
 11
35.669
 21
40.8838
 31
0.0
  0
LINE
  8
0
 62
     0
 10
35.669
 20
40.8838
 30
0.0
 11
21.6697
 21
40.8838
 31
0.0
  0
LINE
  8
0
 62
     0
 10
21.6697
 20
40.8838
 30
0.0
 11
21.6697
 21
54.8831
 31
0.0
  0
LINE
  8
0
 62
     0
 10
40.7197
 20
54.8831
 30
0.0
 11
54.719
 21
54.8831
 31
0.0
  0
LINE
  8
0
 62
     0
 10
54.719
 20
54.8831
 30
0.0
 11
54.719
 21
40.8838
 31
0.0
  0
LINE
  8
0
 62
     0
 10
54.719
 20
40.8838
 30
0.0
 11
40.7197
 21
40.8838
 31
0.0
  0
LINE
  8
0
 62
     0
 10
40.7197
 20
40.8838
 30
0.0
 11
40.7197
 21
54.8831
 31
0.0
  0
LINE
  8
0
 62
     0
 10
2.61965
 20
73.9331
 30
0.0
 11
16.6192
 21
73.9331
 31
0.0
  0
LINE
  8
0
 62
     0
 10
16.6192
 20
73.9331
 30
0.0
 11
16.6192
 21
59.9338
 31
0.0
  0
LINE
  8
0
 62
     0
 10
16.6192
 20
59.9338
 30
0.0
 11
2.61965
 21
59.9338
 31
0.0
  0
LINE
  8
0
 62
     0
 10
2.61965
 20
59.9338
 30
0.0
 11
2.61965
 21
73.9331
 31
0.0
  0
LINE
  8
0
 62
     0
 10
21.6697
 20
73.9331
 30
0.0
 11
35.669
 21
73.9331
 31
0.0
  0
LINE
  8
0
 62
     0
 10
35.669
 20
73.9331
 30
0.0
 11
35.669
 21
59.9338
 31
0.0
  0
LINE
  8
0
 62
     0
 10
35.669
 20
59.9338
 30
0.0
 11
21.6697
 21
59.9338
 31
0.0
  0
LINE
  8
0
 62
     0
 10
21.6697
 20
59.9338
 30
0.0
 11
21.6697
 21
73.9331
 31
0.0
  0
LINE
  8
0
 62
     0
 10
40.7197
 20
73.9331
 30
0.0
 11
54.719
 21
73.9331
 31
0.0
  0
LINE
  8
0
 62
     0
 10
54.719
 20
73.9331
 30
0.0
 11
54.719
 21
59.9338
 31
0.0
  0
LINE
  8
0
 62
     0
 10
54.719
 20
59.9338
 30
0.0
 11
40.7197
 21
59.9338
 31
0.0
  0
LINE
  8
0
 62
     0
 10
40.7197
 20
59.9338
 30
0.0
 11
40.7197
 21
73.9331
 31
0.0
  0
ENDSEC
  0
EOF
