solid OpenSCAD_Model
  facet normal -1 0 0
    outer loop
      vertex 0 0 0
      vertex 0 76.2 8
      vertex 0 76.2 0
    endloop
  endfacet
  facet normal -1 -0 0
    outer loop
      vertex 0 76.2 8
      vertex 0 0 0
      vertex 0 0 8
    endloop
  endfacet
  facet normal 0 0 1
    outer loop
      vertex 57.15 76.2 8
      vertex 56.15 75.2 8
      vertex 57.15 0 8
    endloop
  endfacet
  facet normal 0 0 1
    outer loop
      vertex 57.15 76.2 8
      vertex 1 75.2 8
      vertex 56.15 75.2 8
    endloop
  endfacet
  facet normal 0 0 1
    outer loop
      vertex 1 75.2 8
      vertex 0 76.2 8
      vertex 1 1 8
    endloop
  endfacet
  facet normal -0 0 1
    outer loop
      vertex 0 76.2 8
      vertex 1 75.2 8
      vertex 57.15 76.2 8
    endloop
  endfacet
  facet normal -0 0 1
    outer loop
      vertex 56.15 1 8
      vertex 57.15 0 8
      vertex 56.15 75.2 8
    endloop
  endfacet
  facet normal 0 0 1
    outer loop
      vertex 32 0 8
      vertex 56.15 1 8
      vertex 32 1 8
    endloop
  endfacet
  facet normal 0 0 1
    outer loop
      vertex 56.15 1 8
      vertex 32 0 8
      vertex 57.15 0 8
    endloop
  endfacet
  facet normal -0 0 1
    outer loop
      vertex 1 1 8
      vertex 9 0 8
      vertex 9 1 8
    endloop
  endfacet
  facet normal 0 0 1
    outer loop
      vertex 1 1 8
      vertex 0 0 8
      vertex 9 0 8
    endloop
  endfacet
  facet normal 0 0 1
    outer loop
      vertex 0 0 8
      vertex 1 1 8
      vertex 0 76.2 8
    endloop
  endfacet
  facet normal 1 -0 0
    outer loop
      vertex 57.15 0 8
      vertex 57.15 76.2 0
      vertex 57.15 76.2 8
    endloop
  endfacet
  facet normal 1 0 0
    outer loop
      vertex 57.15 76.2 0
      vertex 57.15 0 8
      vertex 57.15 0 0
    endloop
  endfacet
  facet normal 0 1 -0
    outer loop
      vertex 57.15 76.2 0
      vertex 0 76.2 8
      vertex 57.15 76.2 8
    endloop
  endfacet
  facet normal 0 1 0
    outer loop
      vertex 0 76.2 8
      vertex 57.15 76.2 0
      vertex 0 76.2 0
    endloop
  endfacet
  facet normal 0 0 -1
    outer loop
      vertex 24.7465 20.4399 0
      vertex 57.15 0 0
      vertex 24.75 20.33 0
    endloop
  endfacet
  facet normal 0 0 -1
    outer loop
      vertex 57.15 0 0
      vertex 24.7465 20.2201 0
      vertex 24.75 20.33 0
    endloop
  endfacet
  facet normal 0 0 -1
    outer loop
      vertex 57.15 0 0
      vertex 24.7362 20.1107 0
      vertex 24.7465 20.2201 0
    endloop
  endfacet
  facet normal 0 0 -1
    outer loop
      vertex 57.15 0 0
      vertex 24.719 20.0021 0
      vertex 24.7362 20.1107 0
    endloop
  endfacet
  facet normal 0 0 -1
    outer loop
      vertex 57.15 0 0
      vertex 24.695 19.8948 0
      vertex 24.719 20.0021 0
    endloop
  endfacet
  facet normal 0 0 -1
    outer loop
      vertex 57.15 0 0
      vertex 24.6643 19.7892 0
      vertex 24.695 19.8948 0
    endloop
  endfacet
  facet normal 0 0 -1
    outer loop
      vertex 57.15 0 0
      vertex 24.6271 19.6858 0
      vertex 24.6643 19.7892 0
    endloop
  endfacet
  facet normal 0 0 -1
    outer loop
      vertex 57.15 0 0
      vertex 24.5834 19.5849 0
      vertex 24.6271 19.6858 0
    endloop
  endfacet
  facet normal 0 0 -1
    outer loop
      vertex 57.15 0 0
      vertex 24.5335 19.4869 0
      vertex 24.5834 19.5849 0
    endloop
  endfacet
  facet normal 0 0 -1
    outer loop
      vertex 57.15 0 0
      vertex 24.4776 19.3923 0
      vertex 24.5335 19.4869 0
    endloop
  endfacet
  facet normal 0 0 -1
    outer loop
      vertex 57.15 0 0
      vertex 24.4158 19.3014 0
      vertex 24.4776 19.3923 0
    endloop
  endfacet
  facet normal 0 0 -1
    outer loop
      vertex 57.15 0 0
      vertex 24.3484 19.2145 0
      vertex 24.4158 19.3014 0
    endloop
  endfacet
  facet normal 0 0 -1
    outer loop
      vertex 57.15 0 0
      vertex 24.2757 19.132 0
      vertex 24.3484 19.2145 0
    endloop
  endfacet
  facet normal 0 0 -1
    outer loop
      vertex 57.15 0 0
      vertex 24.198 19.0543 0
      vertex 24.2757 19.132 0
    endloop
  endfacet
  facet normal 0 0 -1
    outer loop
      vertex 57.15 0 0
      vertex 24.1155 18.9816 0
      vertex 24.198 19.0543 0
    endloop
  endfacet
  facet normal 0 0 -1
    outer loop
      vertex 57.15 0 0
      vertex 24.0286 18.9142 0
      vertex 24.1155 18.9816 0
    endloop
  endfacet
  facet normal 0 0 -1
    outer loop
      vertex 57.15 0 0
      vertex 23.9377 18.8524 0
      vertex 24.0286 18.9142 0
    endloop
  endfacet
  facet normal 0 0 -1
    outer loop
      vertex 57.15 0 0
      vertex 23.8431 18.7965 0
      vertex 23.9377 18.8524 0
    endloop
  endfacet
  facet normal 0 0 -1
    outer loop
      vertex 57.15 0 0
      vertex 23.7451 18.7466 0
      vertex 23.8431 18.7965 0
    endloop
  endfacet
  facet normal 0 0 -1
    outer loop
      vertex 57.15 0 0
      vertex 23.6442 18.7029 0
      vertex 23.7451 18.7466 0
    endloop
  endfacet
  facet normal 0 0 -1
    outer loop
      vertex 57.15 0 0
      vertex 23.5408 18.6656 0
      vertex 23.6442 18.7029 0
    endloop
  endfacet
  facet normal 0 0 -1
    outer loop
      vertex 57.15 0 0
      vertex 23.4352 18.635 0
      vertex 23.5408 18.6656 0
    endloop
  endfacet
  facet normal 0 0 -1
    outer loop
      vertex 57.15 0 0
      vertex 23.3279 18.611 0
      vertex 23.4352 18.635 0
    endloop
  endfacet
  facet normal 0 0 -1
    outer loop
      vertex 0 0 0
      vertex 23.3279 18.611 0
      vertex 57.15 0 0
    endloop
  endfacet
  facet normal 0 0 -1
    outer loop
      vertex 23.3279 18.611 0
      vertex 0 0 0
      vertex 23.2193 18.5938 0
    endloop
  endfacet
  facet normal 0 0 -1
    outer loop
      vertex 23.2193 18.5938 0
      vertex 0 0 0
      vertex 23.1099 18.5835 0
    endloop
  endfacet
  facet normal 0 0 -1
    outer loop
      vertex 23.1099 18.5835 0
      vertex 0 0 0
      vertex 23 18.58 0
    endloop
  endfacet
  facet normal -0 0 -1
    outer loop
      vertex 23 18.58 0
      vertex 0 0 0
      vertex 22.8901 18.5835 0
    endloop
  endfacet
  facet normal -0 0 -1
    outer loop
      vertex 22.8901 18.5835 0
      vertex 0 0 0
      vertex 22.7807 18.5938 0
    endloop
  endfacet
  facet normal -0 0 -1
    outer loop
      vertex 22.7807 18.5938 0
      vertex 0 0 0
      vertex 22.6721 18.611 0
    endloop
  endfacet
  facet normal -0 0 -1
    outer loop
      vertex 22.6721 18.611 0
      vertex 0 0 0
      vertex 22.5648 18.635 0
    endloop
  endfacet
  facet normal -0 0 -1
    outer loop
      vertex 22.5648 18.635 0
      vertex 0 0 0
      vertex 22.4592 18.6656 0
    endloop
  endfacet
  facet normal -0 0 -1
    outer loop
      vertex 22.4592 18.6656 0
      vertex 0 0 0
      vertex 22.3558 18.7029 0
    endloop
  endfacet
  facet normal -0 0 -1
    outer loop
      vertex 22.3558 18.7029 0
      vertex 0 0 0
      vertex 22.2549 18.7466 0
    endloop
  endfacet
  facet normal -0 0 -1
    outer loop
      vertex 21.2535 20.2201 0
      vertex 0 0 0
      vertex 21.25 20.33 0
    endloop
  endfacet
  facet normal -0 0 -1
    outer loop
      vertex 21.2638 20.1107 0
      vertex 0 0 0
      vertex 21.2535 20.2201 0
    endloop
  endfacet
  facet normal -0 0 -1
    outer loop
      vertex 21.281 20.0021 0
      vertex 0 0 0
      vertex 21.2638 20.1107 0
    endloop
  endfacet
  facet normal -0 0 -1
    outer loop
      vertex 21.305 19.8948 0
      vertex 0 0 0
      vertex 21.281 20.0021 0
    endloop
  endfacet
  facet normal -0 0 -1
    outer loop
      vertex 21.3357 19.7892 0
      vertex 0 0 0
      vertex 21.305 19.8948 0
    endloop
  endfacet
  facet normal -0 0 -1
    outer loop
      vertex 21.3729 19.6858 0
      vertex 0 0 0
      vertex 21.3357 19.7892 0
    endloop
  endfacet
  facet normal -0 0 -1
    outer loop
      vertex 21.4166 19.5849 0
      vertex 0 0 0
      vertex 21.3729 19.6858 0
    endloop
  endfacet
  facet normal -0 0 -1
    outer loop
      vertex 21.4665 19.4869 0
      vertex 0 0 0
      vertex 21.4166 19.5849 0
    endloop
  endfacet
  facet normal -0 0 -1
    outer loop
      vertex 21.5224 19.3923 0
      vertex 0 0 0
      vertex 21.4665 19.4869 0
    endloop
  endfacet
  facet normal -0 0 -1
    outer loop
      vertex 21.5842 19.3014 0
      vertex 0 0 0
      vertex 21.5224 19.3923 0
    endloop
  endfacet
  facet normal -0 0 -1
    outer loop
      vertex 21.6516 19.2145 0
      vertex 0 0 0
      vertex 21.5842 19.3014 0
    endloop
  endfacet
  facet normal -0 0 -1
    outer loop
      vertex 21.7243 19.132 0
      vertex 0 0 0
      vertex 21.6516 19.2145 0
    endloop
  endfacet
  facet normal -0 0 -1
    outer loop
      vertex 21.802 19.0543 0
      vertex 0 0 0
      vertex 21.7243 19.132 0
    endloop
  endfacet
  facet normal -0 0 -1
    outer loop
      vertex 21.8845 18.9816 0
      vertex 0 0 0
      vertex 21.802 19.0543 0
    endloop
  endfacet
  facet normal -0 0 -1
    outer loop
      vertex 21.9714 18.9142 0
      vertex 0 0 0
      vertex 21.8845 18.9816 0
    endloop
  endfacet
  facet normal -0 0 -1
    outer loop
      vertex 22.0623 18.8524 0
      vertex 0 0 0
      vertex 21.9714 18.9142 0
    endloop
  endfacet
  facet normal -0 0 -1
    outer loop
      vertex 22.1569 18.7965 0
      vertex 0 0 0
      vertex 22.0623 18.8524 0
    endloop
  endfacet
  facet normal -0 0 -1
    outer loop
      vertex 22.2549 18.7466 0
      vertex 0 0 0
      vertex 22.1569 18.7965 0
    endloop
  endfacet
  facet normal 0 0 -1
    outer loop
      vertex 24.7362 20.5493 0
      vertex 57.15 0 0
      vertex 24.7465 20.4399 0
    endloop
  endfacet
  facet normal 0 0 -1
    outer loop
      vertex 24.719 20.6579 0
      vertex 57.15 0 0
      vertex 24.7362 20.5493 0
    endloop
  endfacet
  facet normal 0 0 -1
    outer loop
      vertex 24.695 20.7652 0
      vertex 57.15 0 0
      vertex 24.719 20.6579 0
    endloop
  endfacet
  facet normal 0 0 -1
    outer loop
      vertex 24.6643 20.8708 0
      vertex 57.15 0 0
      vertex 24.695 20.7652 0
    endloop
  endfacet
  facet normal 0 0 -1
    outer loop
      vertex 24.6271 20.9742 0
      vertex 57.15 0 0
      vertex 24.6643 20.8708 0
    endloop
  endfacet
  facet normal 0 0 -1
    outer loop
      vertex 24.5834 21.0751 0
      vertex 57.15 0 0
      vertex 24.6271 20.9742 0
    endloop
  endfacet
  facet normal 0 0 -1
    outer loop
      vertex 57.15 0 0
      vertex 24.5834 21.0751 0
      vertex 57.15 76.2 0
    endloop
  endfacet
  facet normal 0 0 -1
    outer loop
      vertex 24.5335 21.1731 0
      vertex 57.15 76.2 0
      vertex 24.5834 21.0751 0
    endloop
  endfacet
  facet normal 0 0 -1
    outer loop
      vertex 24.4776 21.2677 0
      vertex 57.15 76.2 0
      vertex 24.5335 21.1731 0
    endloop
  endfacet
  facet normal 0 0 -1
    outer loop
      vertex 24.4158 21.3586 0
      vertex 57.15 76.2 0
      vertex 24.4776 21.2677 0
    endloop
  endfacet
  facet normal 0 0 -1
    outer loop
      vertex 24.3484 21.4455 0
      vertex 57.15 76.2 0
      vertex 24.4158 21.3586 0
    endloop
  endfacet
  facet normal 0 0 -1
    outer loop
      vertex 24.2757 21.528 0
      vertex 57.15 76.2 0
      vertex 24.3484 21.4455 0
    endloop
  endfacet
  facet normal 0 0 -1
    outer loop
      vertex 24.198 21.6057 0
      vertex 57.15 76.2 0
      vertex 24.2757 21.528 0
    endloop
  endfacet
  facet normal 0 0 -1
    outer loop
      vertex 24.1155 21.6784 0
      vertex 57.15 76.2 0
      vertex 24.198 21.6057 0
    endloop
  endfacet
  facet normal 0 0 -1
    outer loop
      vertex 24.0286 21.7458 0
      vertex 57.15 76.2 0
      vertex 24.1155 21.6784 0
    endloop
  endfacet
  facet normal 0 0 -1
    outer loop
      vertex 23.9377 21.8076 0
      vertex 57.15 76.2 0
      vertex 24.0286 21.7458 0
    endloop
  endfacet
  facet normal 0 0 -1
    outer loop
      vertex 23.8431 21.8635 0
      vertex 57.15 76.2 0
      vertex 23.9377 21.8076 0
    endloop
  endfacet
  facet normal 0 0 -1
    outer loop
      vertex 23.7451 21.9134 0
      vertex 57.15 76.2 0
      vertex 23.8431 21.8635 0
    endloop
  endfacet
  facet normal 0 0 -1
    outer loop
      vertex 23.6442 21.9571 0
      vertex 57.15 76.2 0
      vertex 23.7451 21.9134 0
    endloop
  endfacet
  facet normal 0 0 -1
    outer loop
      vertex 23.5408 21.9943 0
      vertex 57.15 76.2 0
      vertex 23.6442 21.9571 0
    endloop
  endfacet
  facet normal 0 0 -1
    outer loop
      vertex 23.4352 22.025 0
      vertex 57.15 76.2 0
      vertex 23.5408 21.9943 0
    endloop
  endfacet
  facet normal 0 0 -1
    outer loop
      vertex 23.3279 22.049 0
      vertex 57.15 76.2 0
      vertex 23.4352 22.025 0
    endloop
  endfacet
  facet normal 0 0 -1
    outer loop
      vertex 23.2193 22.0662 0
      vertex 57.15 76.2 0
      vertex 23.3279 22.049 0
    endloop
  endfacet
  facet normal 0 0 -1
    outer loop
      vertex 0 76.2 0
      vertex 23.2193 22.0662 0
      vertex 23.1099 22.0765 0
    endloop
  endfacet
  facet normal 0 0 -1
    outer loop
      vertex 0 76.2 0
      vertex 23.1099 22.0765 0
      vertex 23 22.08 0
    endloop
  endfacet
  facet normal 0 0 -1
    outer loop
      vertex 0 76.2 0
      vertex 23 22.08 0
      vertex 22.8901 22.0765 0
    endloop
  endfacet
  facet normal 0 0 -1
    outer loop
      vertex 0 76.2 0
      vertex 22.8901 22.0765 0
      vertex 22.7807 22.0662 0
    endloop
  endfacet
  facet normal 0 0 -1
    outer loop
      vertex 0 76.2 0
      vertex 22.7807 22.0662 0
      vertex 22.6721 22.049 0
    endloop
  endfacet
  facet normal 0 0 -1
    outer loop
      vertex 0 76.2 0
      vertex 22.6721 22.049 0
      vertex 22.5648 22.025 0
    endloop
  endfacet
  facet normal 0 0 -1
    outer loop
      vertex 0 76.2 0
      vertex 22.5648 22.025 0
      vertex 22.4592 21.9943 0
    endloop
  endfacet
  facet normal 0 0 -1
    outer loop
      vertex 0 76.2 0
      vertex 22.4592 21.9943 0
      vertex 22.3558 21.9571 0
    endloop
  endfacet
  facet normal 0 0 -1
    outer loop
      vertex 0 76.2 0
      vertex 22.3558 21.9571 0
      vertex 22.2549 21.9134 0
    endloop
  endfacet
  facet normal 0 0 -1
    outer loop
      vertex 0 76.2 0
      vertex 22.2549 21.9134 0
      vertex 22.1569 21.8635 0
    endloop
  endfacet
  facet normal 0 0 -1
    outer loop
      vertex 0 76.2 0
      vertex 22.1569 21.8635 0
      vertex 22.0623 21.8076 0
    endloop
  endfacet
  facet normal 0 0 -1
    outer loop
      vertex 0 76.2 0
      vertex 22.0623 21.8076 0
      vertex 21.9714 21.7458 0
    endloop
  endfacet
  facet normal 0 0 -1
    outer loop
      vertex 0 76.2 0
      vertex 21.9714 21.7458 0
      vertex 21.8845 21.6784 0
    endloop
  endfacet
  facet normal 0 0 -1
    outer loop
      vertex 0 76.2 0
      vertex 21.8845 21.6784 0
      vertex 21.802 21.6057 0
    endloop
  endfacet
  facet normal 0 0 -1
    outer loop
      vertex 0 76.2 0
      vertex 21.802 21.6057 0
      vertex 21.7243 21.528 0
    endloop
  endfacet
  facet normal 0 0 -1
    outer loop
      vertex 0 76.2 0
      vertex 21.7243 21.528 0
      vertex 21.6516 21.4455 0
    endloop
  endfacet
  facet normal 0 0 -1
    outer loop
      vertex 0 76.2 0
      vertex 21.6516 21.4455 0
      vertex 21.5842 21.3586 0
    endloop
  endfacet
  facet normal 0 0 -1
    outer loop
      vertex 0 76.2 0
      vertex 21.5842 21.3586 0
      vertex 21.5224 21.2677 0
    endloop
  endfacet
  facet normal 0 0 -1
    outer loop
      vertex 0 0 0
      vertex 21.2535 20.4399 0
      vertex 21.25 20.33 0
    endloop
  endfacet
  facet normal 0 0 -1
    outer loop
      vertex 0 0 0
      vertex 21.2638 20.5493 0
      vertex 21.2535 20.4399 0
    endloop
  endfacet
  facet normal 0 0 -1
    outer loop
      vertex 0 0 0
      vertex 21.281 20.6579 0
      vertex 21.2638 20.5493 0
    endloop
  endfacet
  facet normal 0 0 -1
    outer loop
      vertex 0 0 0
      vertex 21.305 20.7652 0
      vertex 21.281 20.6579 0
    endloop
  endfacet
  facet normal 0 0 -1
    outer loop
      vertex 0 0 0
      vertex 21.3357 20.8708 0
      vertex 21.305 20.7652 0
    endloop
  endfacet
  facet normal 0 0 -1
    outer loop
      vertex 0 0 0
      vertex 21.3729 20.9742 0
      vertex 21.3357 20.8708 0
    endloop
  endfacet
  facet normal 0 0 -1
    outer loop
      vertex 0 0 0
      vertex 21.4166 21.0751 0
      vertex 21.3729 20.9742 0
    endloop
  endfacet
  facet normal 0 0 -1
    outer loop
      vertex 0 76.2 0
      vertex 21.4166 21.0751 0
      vertex 0 0 0
    endloop
  endfacet
  facet normal 0 0 -1
    outer loop
      vertex 21.4166 21.0751 0
      vertex 0 76.2 0
      vertex 21.4665 21.1731 0
    endloop
  endfacet
  facet normal 0 0 -1
    outer loop
      vertex 21.4665 21.1731 0
      vertex 0 76.2 0
      vertex 21.5224 21.2677 0
    endloop
  endfacet
  facet normal 0 0 -1
    outer loop
      vertex 23.2193 22.0662 0
      vertex 0 76.2 0
      vertex 57.15 76.2 0
    endloop
  endfacet
  facet normal 0 -1 0
    outer loop
      vertex 0 0 8
      vertex 9 0 1
      vertex 9 0 8
    endloop
  endfacet
  facet normal 0 -1 -0
    outer loop
      vertex 9 0 1
      vertex 0 0 0
      vertex 32 0 1
    endloop
  endfacet
  facet normal 0 -1 0
    outer loop
      vertex 0 0 0
      vertex 9 0 1
      vertex 0 0 8
    endloop
  endfacet
  facet normal 0 -1 0
    outer loop
      vertex 32 0 1
      vertex 57.15 0 8
      vertex 32 0 8
    endloop
  endfacet
  facet normal 0 -1 0
    outer loop
      vertex 32 0 1
      vertex 57.15 0 0
      vertex 57.15 0 8
    endloop
  endfacet
  facet normal 0 -1 0
    outer loop
      vertex 57.15 0 0
      vertex 32 0 1
      vertex 0 0 0
    endloop
  endfacet
  facet normal 1 -0 0
    outer loop
      vertex 1 1 8
      vertex 1 75.2 1
      vertex 1 75.2 8
    endloop
  endfacet
  facet normal 1 0 0
    outer loop
      vertex 1 75.2 1
      vertex 1 1 8
      vertex 1 1 1
    endloop
  endfacet
  facet normal -1 0 0
    outer loop
      vertex 56.15 1 1
      vertex 56.15 75.2 8
      vertex 56.15 75.2 1
    endloop
  endfacet
  facet normal -1 -0 0
    outer loop
      vertex 56.15 75.2 8
      vertex 56.15 1 1
      vertex 56.15 1 8
    endloop
  endfacet
  facet normal -0 0 1
    outer loop
      vertex 24.5834 21.0751 1
      vertex 56.15 1 1
      vertex 56.15 75.2 1
    endloop
  endfacet
  facet normal -0 0 1
    outer loop
      vertex 24.7362 20.1107 1
      vertex 56.15 1 1
      vertex 24.7465 20.2201 1
    endloop
  endfacet
  facet normal -0 -0 1
    outer loop
      vertex 24.7465 20.4399 1
      vertex 56.15 1 1
      vertex 24.7362 20.5493 1
    endloop
  endfacet
  facet normal -0 0 1
    outer loop
      vertex 24.7465 20.2201 1
      vertex 56.15 1 1
      vertex 24.75 20.33 1
    endloop
  endfacet
  facet normal -0 -0 1
    outer loop
      vertex 24.75 20.33 1
      vertex 56.15 1 1
      vertex 24.7465 20.4399 1
    endloop
  endfacet
  facet normal 0 0 1
    outer loop
      vertex 56.15 1 1
      vertex 24.719 20.6579 1
      vertex 24.7362 20.5493 1
    endloop
  endfacet
  facet normal 0 0 1
    outer loop
      vertex 56.15 1 1
      vertex 24.695 20.7652 1
      vertex 24.719 20.6579 1
    endloop
  endfacet
  facet normal 0 0 1
    outer loop
      vertex 56.15 1 1
      vertex 24.6643 20.8708 1
      vertex 24.695 20.7652 1
    endloop
  endfacet
  facet normal 0 0 1
    outer loop
      vertex 56.15 1 1
      vertex 24.6271 20.9742 1
      vertex 24.6643 20.8708 1
    endloop
  endfacet
  facet normal 0 0 1
    outer loop
      vertex 56.15 1 1
      vertex 24.5834 21.0751 1
      vertex 24.6271 20.9742 1
    endloop
  endfacet
  facet normal 0 0 1
    outer loop
      vertex 56.15 75.2 1
      vertex 24.5335 21.1731 1
      vertex 24.5834 21.0751 1
    endloop
  endfacet
  facet normal 0 0 1
    outer loop
      vertex 56.15 75.2 1
      vertex 24.4776 21.2677 1
      vertex 24.5335 21.1731 1
    endloop
  endfacet
  facet normal 0 0 1
    outer loop
      vertex 56.15 75.2 1
      vertex 24.4158 21.3586 1
      vertex 24.4776 21.2677 1
    endloop
  endfacet
  facet normal 0 0 1
    outer loop
      vertex 56.15 75.2 1
      vertex 24.3484 21.4455 1
      vertex 24.4158 21.3586 1
    endloop
  endfacet
  facet normal 0 0 1
    outer loop
      vertex 56.15 75.2 1
      vertex 24.2757 21.528 1
      vertex 24.3484 21.4455 1
    endloop
  endfacet
  facet normal 0 0 1
    outer loop
      vertex 56.15 75.2 1
      vertex 24.198 21.6057 1
      vertex 24.2757 21.528 1
    endloop
  endfacet
  facet normal 0 0 1
    outer loop
      vertex 56.15 75.2 1
      vertex 24.1155 21.6784 1
      vertex 24.198 21.6057 1
    endloop
  endfacet
  facet normal 0 0 1
    outer loop
      vertex 56.15 75.2 1
      vertex 24.0286 21.7458 1
      vertex 24.1155 21.6784 1
    endloop
  endfacet
  facet normal 0 0 1
    outer loop
      vertex 56.15 75.2 1
      vertex 23.9377 21.8076 1
      vertex 24.0286 21.7458 1
    endloop
  endfacet
  facet normal 0 0 1
    outer loop
      vertex 56.15 75.2 1
      vertex 23.8431 21.8635 1
      vertex 23.9377 21.8076 1
    endloop
  endfacet
  facet normal 0 0 1
    outer loop
      vertex 56.15 75.2 1
      vertex 23.7451 21.9134 1
      vertex 23.8431 21.8635 1
    endloop
  endfacet
  facet normal 0 0 1
    outer loop
      vertex 56.15 75.2 1
      vertex 23.6442 21.9571 1
      vertex 23.7451 21.9134 1
    endloop
  endfacet
  facet normal 0 0 1
    outer loop
      vertex 56.15 75.2 1
      vertex 23.5408 21.9943 1
      vertex 23.6442 21.9571 1
    endloop
  endfacet
  facet normal 0 0 1
    outer loop
      vertex 56.15 75.2 1
      vertex 23.4352 22.025 1
      vertex 23.5408 21.9943 1
    endloop
  endfacet
  facet normal 0 0 1
    outer loop
      vertex 56.15 75.2 1
      vertex 23.3279 22.049 1
      vertex 23.4352 22.025 1
    endloop
  endfacet
  facet normal 0 0 1
    outer loop
      vertex 56.15 75.2 1
      vertex 23.2193 22.0662 1
      vertex 23.3279 22.049 1
    endloop
  endfacet
  facet normal -0 0 1
    outer loop
      vertex 1 75.2 1
      vertex 23.2193 22.0662 1
      vertex 56.15 75.2 1
    endloop
  endfacet
  facet normal 0 0 1
    outer loop
      vertex 23.2193 22.0662 1
      vertex 1 75.2 1
      vertex 23.1099 22.0765 1
    endloop
  endfacet
  facet normal 0 0 1
    outer loop
      vertex 23.1099 22.0765 1
      vertex 1 75.2 1
      vertex 23 22.08 1
    endloop
  endfacet
  facet normal 0 0 1
    outer loop
      vertex 23 22.08 1
      vertex 1 75.2 1
      vertex 22.8901 22.0765 1
    endloop
  endfacet
  facet normal 0 0 1
    outer loop
      vertex 22.8901 22.0765 1
      vertex 1 75.2 1
      vertex 22.7807 22.0662 1
    endloop
  endfacet
  facet normal 0 0 1
    outer loop
      vertex 22.7807 22.0662 1
      vertex 1 75.2 1
      vertex 22.6721 22.049 1
    endloop
  endfacet
  facet normal 0 0 1
    outer loop
      vertex 22.6721 22.049 1
      vertex 1 75.2 1
      vertex 22.5648 22.025 1
    endloop
  endfacet
  facet normal 0 0 1
    outer loop
      vertex 22.5648 22.025 1
      vertex 1 75.2 1
      vertex 22.4592 21.9943 1
    endloop
  endfacet
  facet normal 0 0 1
    outer loop
      vertex 22.4592 21.9943 1
      vertex 1 75.2 1
      vertex 22.3558 21.9571 1
    endloop
  endfacet
  facet normal 0 0 1
    outer loop
      vertex 22.3558 21.9571 1
      vertex 1 75.2 1
      vertex 22.2549 21.9134 1
    endloop
  endfacet
  facet normal 0 0 1
    outer loop
      vertex 22.2549 21.9134 1
      vertex 1 75.2 1
      vertex 22.1569 21.8635 1
    endloop
  endfacet
  facet normal 0 0 1
    outer loop
      vertex 22.1569 21.8635 1
      vertex 1 75.2 1
      vertex 22.0623 21.8076 1
    endloop
  endfacet
  facet normal 0 0 1
    outer loop
      vertex 22.0623 21.8076 1
      vertex 1 75.2 1
      vertex 21.9714 21.7458 1
    endloop
  endfacet
  facet normal 0 0 1
    outer loop
      vertex 21.9714 21.7458 1
      vertex 1 75.2 1
      vertex 21.8845 21.6784 1
    endloop
  endfacet
  facet normal 0 0 1
    outer loop
      vertex 21.8845 21.6784 1
      vertex 1 75.2 1
      vertex 21.802 21.6057 1
    endloop
  endfacet
  facet normal 0 0 1
    outer loop
      vertex 21.802 21.6057 1
      vertex 1 75.2 1
      vertex 21.7243 21.528 1
    endloop
  endfacet
  facet normal 0 0 1
    outer loop
      vertex 21.7243 21.528 1
      vertex 1 75.2 1
      vertex 21.6516 21.4455 1
    endloop
  endfacet
  facet normal 0 0 1
    outer loop
      vertex 21.6516 21.4455 1
      vertex 1 75.2 1
      vertex 21.5842 21.3586 1
    endloop
  endfacet
  facet normal 0 0 1
    outer loop
      vertex 1 1 1
      vertex 21.25 20.33 1
      vertex 21.2535 20.4399 1
    endloop
  endfacet
  facet normal 0 0 1
    outer loop
      vertex 1 1 1
      vertex 21.2535 20.4399 1
      vertex 21.2638 20.5493 1
    endloop
  endfacet
  facet normal 0 0 1
    outer loop
      vertex 1 1 1
      vertex 21.2638 20.5493 1
      vertex 21.281 20.6579 1
    endloop
  endfacet
  facet normal 0 0 1
    outer loop
      vertex 1 1 1
      vertex 21.281 20.6579 1
      vertex 21.305 20.7652 1
    endloop
  endfacet
  facet normal 0 0 1
    outer loop
      vertex 1 1 1
      vertex 21.305 20.7652 1
      vertex 21.3357 20.8708 1
    endloop
  endfacet
  facet normal 0 0 1
    outer loop
      vertex 1 1 1
      vertex 21.3357 20.8708 1
      vertex 21.3729 20.9742 1
    endloop
  endfacet
  facet normal 0 0 1
    outer loop
      vertex 1 1 1
      vertex 21.3729 20.9742 1
      vertex 21.4166 21.0751 1
    endloop
  endfacet
  facet normal 0 0 1
    outer loop
      vertex 1 75.2 1
      vertex 21.4166 21.0751 1
      vertex 21.4665 21.1731 1
    endloop
  endfacet
  facet normal 0 0 1
    outer loop
      vertex 1 75.2 1
      vertex 21.4665 21.1731 1
      vertex 21.5224 21.2677 1
    endloop
  endfacet
  facet normal 0 0 1
    outer loop
      vertex 21.5842 21.3586 1
      vertex 1 75.2 1
      vertex 21.5224 21.2677 1
    endloop
  endfacet
  facet normal 0 0 1
    outer loop
      vertex 21.4166 21.0751 1
      vertex 1 75.2 1
      vertex 1 1 1
    endloop
  endfacet
  facet normal 0 0 1
    outer loop
      vertex 21.25 20.33 1
      vertex 1 1 1
      vertex 9 1 1
    endloop
  endfacet
  facet normal -0 0 1
    outer loop
      vertex 24.719 20.0021 1
      vertex 56.15 1 1
      vertex 24.7362 20.1107 1
    endloop
  endfacet
  facet normal 0 0 1
    outer loop
      vertex 56.15 1 1
      vertex 24.719 20.0021 1
      vertex 32 1 1
    endloop
  endfacet
  facet normal -0 0 1
    outer loop
      vertex 24.695 19.8948 1
      vertex 32 1 1
      vertex 24.719 20.0021 1
    endloop
  endfacet
  facet normal -0 0 1
    outer loop
      vertex 24.6643 19.7892 1
      vertex 32 1 1
      vertex 24.695 19.8948 1
    endloop
  endfacet
  facet normal -0 0 1
    outer loop
      vertex 24.6271 19.6858 1
      vertex 32 1 1
      vertex 24.6643 19.7892 1
    endloop
  endfacet
  facet normal -0 0 1
    outer loop
      vertex 24.5834 19.5849 1
      vertex 32 1 1
      vertex 24.6271 19.6858 1
    endloop
  endfacet
  facet normal -0 0 1
    outer loop
      vertex 24.5335 19.4869 1
      vertex 32 1 1
      vertex 24.5834 19.5849 1
    endloop
  endfacet
  facet normal -0 0 1
    outer loop
      vertex 24.4776 19.3923 1
      vertex 32 1 1
      vertex 24.5335 19.4869 1
    endloop
  endfacet
  facet normal -0 0 1
    outer loop
      vertex 24.4158 19.3014 1
      vertex 32 1 1
      vertex 24.4776 19.3923 1
    endloop
  endfacet
  facet normal -0 0 1
    outer loop
      vertex 24.3484 19.2145 1
      vertex 32 1 1
      vertex 24.4158 19.3014 1
    endloop
  endfacet
  facet normal -0 0 1
    outer loop
      vertex 24.2757 19.132 1
      vertex 32 1 1
      vertex 24.3484 19.2145 1
    endloop
  endfacet
  facet normal -0 0 1
    outer loop
      vertex 24.198 19.0543 1
      vertex 32 1 1
      vertex 24.2757 19.132 1
    endloop
  endfacet
  facet normal -0 0 1
    outer loop
      vertex 24.1155 18.9816 1
      vertex 32 1 1
      vertex 24.198 19.0543 1
    endloop
  endfacet
  facet normal -0 0 1
    outer loop
      vertex 24.0286 18.9142 1
      vertex 32 1 1
      vertex 24.1155 18.9816 1
    endloop
  endfacet
  facet normal -0 0 1
    outer loop
      vertex 23.9377 18.8524 1
      vertex 32 1 1
      vertex 24.0286 18.9142 1
    endloop
  endfacet
  facet normal -0 0 1
    outer loop
      vertex 23.8431 18.7965 1
      vertex 32 1 1
      vertex 23.9377 18.8524 1
    endloop
  endfacet
  facet normal -0 0 1
    outer loop
      vertex 23.7451 18.7466 1
      vertex 32 1 1
      vertex 23.8431 18.7965 1
    endloop
  endfacet
  facet normal -0 0 1
    outer loop
      vertex 23.6442 18.7029 1
      vertex 32 1 1
      vertex 23.7451 18.7466 1
    endloop
  endfacet
  facet normal -0 0 1
    outer loop
      vertex 23.5408 18.6656 1
      vertex 32 1 1
      vertex 23.6442 18.7029 1
    endloop
  endfacet
  facet normal -0 0 1
    outer loop
      vertex 23.4352 18.635 1
      vertex 32 1 1
      vertex 23.5408 18.6656 1
    endloop
  endfacet
  facet normal -0 0 1
    outer loop
      vertex 23.3279 18.611 1
      vertex 32 1 1
      vertex 23.4352 18.635 1
    endloop
  endfacet
  facet normal -0 0 1
    outer loop
      vertex 23.2193 18.5938 1
      vertex 32 1 1
      vertex 23.3279 18.611 1
    endloop
  endfacet
  facet normal -0 0 1
    outer loop
      vertex 23.1099 18.5835 1
      vertex 32 1 1
      vertex 23.2193 18.5938 1
    endloop
  endfacet
  facet normal -0 0 1
    outer loop
      vertex 23 18.58 1
      vertex 32 1 1
      vertex 23.1099 18.5835 1
    endloop
  endfacet
  facet normal 0 0 1
    outer loop
      vertex 22.8901 18.5835 1
      vertex 32 1 1
      vertex 23 18.58 1
    endloop
  endfacet
  facet normal 0 0 1
    outer loop
      vertex 22.7807 18.5938 1
      vertex 32 1 1
      vertex 22.8901 18.5835 1
    endloop
  endfacet
  facet normal 0 0 1
    outer loop
      vertex 22.6721 18.611 1
      vertex 32 1 1
      vertex 22.7807 18.5938 1
    endloop
  endfacet
  facet normal 0 0 1
    outer loop
      vertex 9 1 1
      vertex 32 1 1
      vertex 22.6721 18.611 1
    endloop
  endfacet
  facet normal 0 0 1
    outer loop
      vertex 9 1 1
      vertex 22.6721 18.611 1
      vertex 22.5648 18.635 1
    endloop
  endfacet
  facet normal 0 0 1
    outer loop
      vertex 9 1 1
      vertex 22.5648 18.635 1
      vertex 22.4592 18.6656 1
    endloop
  endfacet
  facet normal 0 0 1
    outer loop
      vertex 9 1 1
      vertex 22.4592 18.6656 1
      vertex 22.3558 18.7029 1
    endloop
  endfacet
  facet normal 0 0 1
    outer loop
      vertex 9 1 1
      vertex 22.3558 18.7029 1
      vertex 22.2549 18.7466 1
    endloop
  endfacet
  facet normal 0 0 1
    outer loop
      vertex 9 1 1
      vertex 22.2549 18.7466 1
      vertex 22.1569 18.7965 1
    endloop
  endfacet
  facet normal 0 0 1
    outer loop
      vertex 9 1 1
      vertex 22.1569 18.7965 1
      vertex 22.0623 18.8524 1
    endloop
  endfacet
  facet normal 0 0 1
    outer loop
      vertex 9 1 1
      vertex 22.0623 18.8524 1
      vertex 21.9714 18.9142 1
    endloop
  endfacet
  facet normal 0 0 1
    outer loop
      vertex 9 1 1
      vertex 21.9714 18.9142 1
      vertex 21.8845 18.9816 1
    endloop
  endfacet
  facet normal 0 0 1
    outer loop
      vertex 9 1 1
      vertex 21.8845 18.9816 1
      vertex 21.802 19.0543 1
    endloop
  endfacet
  facet normal 0 0 1
    outer loop
      vertex 9 1 1
      vertex 21.802 19.0543 1
      vertex 21.7243 19.132 1
    endloop
  endfacet
  facet normal 0 0 1
    outer loop
      vertex 9 1 1
      vertex 21.7243 19.132 1
      vertex 21.6516 19.2145 1
    endloop
  endfacet
  facet normal 0 0 1
    outer loop
      vertex 9 1 1
      vertex 21.6516 19.2145 1
      vertex 21.5842 19.3014 1
    endloop
  endfacet
  facet normal 0 0 1
    outer loop
      vertex 9 1 1
      vertex 21.5842 19.3014 1
      vertex 21.5224 19.3923 1
    endloop
  endfacet
  facet normal 0 0 1
    outer loop
      vertex 9 1 1
      vertex 21.5224 19.3923 1
      vertex 21.4665 19.4869 1
    endloop
  endfacet
  facet normal 0 0 1
    outer loop
      vertex 9 1 1
      vertex 21.2535 20.2201 1
      vertex 21.25 20.33 1
    endloop
  endfacet
  facet normal 0 0 1
    outer loop
      vertex 9 1 1
      vertex 21.2638 20.1107 1
      vertex 21.2535 20.2201 1
    endloop
  endfacet
  facet normal 0 0 1
    outer loop
      vertex 9 1 1
      vertex 21.281 20.0021 1
      vertex 21.2638 20.1107 1
    endloop
  endfacet
  facet normal 0 0 1
    outer loop
      vertex 9 1 1
      vertex 21.305 19.8948 1
      vertex 21.281 20.0021 1
    endloop
  endfacet
  facet normal 0 0 1
    outer loop
      vertex 9 1 1
      vertex 21.3357 19.7892 1
      vertex 21.305 19.8948 1
    endloop
  endfacet
  facet normal 0 0 1
    outer loop
      vertex 9 1 1
      vertex 21.3729 19.6858 1
      vertex 21.3357 19.7892 1
    endloop
  endfacet
  facet normal 0 0 1
    outer loop
      vertex 9 1 1
      vertex 21.4166 19.5849 1
      vertex 21.3729 19.6858 1
    endloop
  endfacet
  facet normal 0 0 1
    outer loop
      vertex 9 1 1
      vertex 21.4665 19.4869 1
      vertex 21.4166 19.5849 1
    endloop
  endfacet
  facet normal 0 0 1
    outer loop
      vertex 32 1 1
      vertex 9 1 1
      vertex 32 0 1
    endloop
  endfacet
  facet normal 0 0 1
    outer loop
      vertex 32 0 1
      vertex 9 1 1
      vertex 9 0 1
    endloop
  endfacet
  facet normal 0 1 -0
    outer loop
      vertex 9 1 1
      vertex 1 1 8
      vertex 9 1 8
    endloop
  endfacet
  facet normal 0 1 0
    outer loop
      vertex 1 1 8
      vertex 9 1 1
      vertex 1 1 1
    endloop
  endfacet
  facet normal 0 1 -0
    outer loop
      vertex 56.15 1 1
      vertex 32 1 8
      vertex 56.15 1 8
    endloop
  endfacet
  facet normal 0 1 0
    outer loop
      vertex 32 1 8
      vertex 56.15 1 1
      vertex 32 1 1
    endloop
  endfacet
  facet normal 0 -1 0
    outer loop
      vertex 1 75.2 1
      vertex 56.15 75.2 8
      vertex 1 75.2 8
    endloop
  endfacet
  facet normal 0 -1 -0
    outer loop
      vertex 56.15 75.2 8
      vertex 1 75.2 1
      vertex 56.15 75.2 1
    endloop
  endfacet
  facet normal 1 -0 0
    outer loop
      vertex 9 0 8
      vertex 9 1 1
      vertex 9 1 8
    endloop
  endfacet
  facet normal 1 0 0
    outer loop
      vertex 9 1 1
      vertex 9 0 8
      vertex 9 0 1
    endloop
  endfacet
  facet normal -1 0 0
    outer loop
      vertex 32 0 1
      vertex 32 1 8
      vertex 32 1 1
    endloop
  endfacet
  facet normal -1 -0 0
    outer loop
      vertex 32 1 8
      vertex 32 0 1
      vertex 32 0 8
    endloop
  endfacet
  facet normal -0.999493 -0.031831 0
    outer loop
      vertex 24.75 20.33 0
      vertex 24.7465 20.4399 1
      vertex 24.7465 20.4399 0
    endloop
  endfacet
  facet normal -0.999493 -0.031831 0
    outer loop
      vertex 24.7465 20.4399 1
      vertex 24.75 20.33 0
      vertex 24.75 20.33 1
    endloop
  endfacet
  facet normal 0.999493 0.031831 0
    outer loop
      vertex 21.2535 20.2201 1
      vertex 21.25 20.33 0
      vertex 21.25 20.33 1
    endloop
  endfacet
  facet normal 0.999493 0.031831 0
    outer loop
      vertex 21.25 20.33 0
      vertex 21.2535 20.2201 1
      vertex 21.2535 20.2201 0
    endloop
  endfacet
  facet normal 0.031831 -0.999493 0
    outer loop
      vertex 22.8901 22.0765 0
      vertex 23 22.08 1
      vertex 22.8901 22.0765 1
    endloop
  endfacet
  facet normal 0.031831 -0.999493 0
    outer loop
      vertex 23 22.08 1
      vertex 22.8901 22.0765 0
      vertex 23 22.08 0
    endloop
  endfacet
  facet normal -0.031831 0.999493 0
    outer loop
      vertex 23.1099 18.5835 0
      vertex 23 18.58 1
      vertex 23.1099 18.5835 1
    endloop
  endfacet
  facet normal -0.031831 0.999493 0
    outer loop
      vertex 23 18.58 1
      vertex 23.1099 18.5835 0
      vertex 23 18.58 0
    endloop
  endfacet
  facet normal -0.66114 -0.750262 0
    outer loop
      vertex 24.1155 21.6784 0
      vertex 24.198 21.6057 1
      vertex 24.1155 21.6784 1
    endloop
  endfacet
  facet normal -0.66114 -0.750262 -0
    outer loop
      vertex 24.198 21.6057 1
      vertex 24.1155 21.6784 0
      vertex 24.198 21.6057 0
    endloop
  endfacet
  facet normal 0.707107 -0.707107 0
    outer loop
      vertex 21.7243 21.528 0
      vertex 21.802 21.6057 1
      vertex 21.7243 21.528 1
    endloop
  endfacet
  facet normal 0.707107 -0.707107 0
    outer loop
      vertex 21.802 21.6057 1
      vertex 21.7243 21.528 0
      vertex 21.802 21.6057 0
    endloop
  endfacet
  facet normal 0.397429 -0.917633 0
    outer loop
      vertex 22.2549 21.9134 0
      vertex 22.3558 21.9571 1
      vertex 22.2549 21.9134 1
    endloop
  endfacet
  facet normal 0.397429 -0.917633 0
    outer loop
      vertex 22.3558 21.9571 1
      vertex 22.2549 21.9134 0
      vertex 22.3558 21.9571 0
    endloop
  endfacet
  facet normal -0.917633 -0.397429 0
    outer loop
      vertex 24.6271 20.9742 0
      vertex 24.5834 21.0751 1
      vertex 24.5834 21.0751 0
    endloop
  endfacet
  facet normal -0.917633 -0.397429 0
    outer loop
      vertex 24.5834 21.0751 1
      vertex 24.6271 20.9742 0
      vertex 24.6271 20.9742 1
    endloop
  endfacet
  facet normal -0.338526 -0.940957 0
    outer loop
      vertex 23.5408 21.9943 0
      vertex 23.6442 21.9571 1
      vertex 23.5408 21.9943 1
    endloop
  endfacet
  facet normal -0.338526 -0.940957 -0
    outer loop
      vertex 23.6442 21.9571 1
      vertex 23.5408 21.9943 0
      vertex 23.6442 21.9571 0
    endloop
  endfacet
  facet normal -0.508729 -0.860927 0
    outer loop
      vertex 23.8431 21.8635 0
      vertex 23.9377 21.8076 1
      vertex 23.8431 21.8635 1
    endloop
  endfacet
  facet normal -0.508729 -0.860927 -0
    outer loop
      vertex 23.9377 21.8076 1
      vertex 23.8431 21.8635 0
      vertex 23.9377 21.8076 0
    endloop
  endfacet
  facet normal 0.860927 -0.508729 0
    outer loop
      vertex 21.4665 21.1731 1
      vertex 21.5224 21.2677 0
      vertex 21.5224 21.2677 1
    endloop
  endfacet
  facet normal 0.860927 -0.508729 0
    outer loop
      vertex 21.5224 21.2677 0
      vertex 21.4665 21.1731 1
      vertex 21.4665 21.1731 0
    endloop
  endfacet
  facet normal 0.790184 -0.61287 0
    outer loop
      vertex 21.5842 21.3586 1
      vertex 21.6516 21.4455 0
      vertex 21.6516 21.4455 1
    endloop
  endfacet
  facet normal 0.790184 -0.61287 0
    outer loop
      vertex 21.6516 21.4455 0
      vertex 21.5842 21.3586 1
      vertex 21.5842 21.3586 0
    endloop
  endfacet
  facet normal 0.218278 -0.975887 0
    outer loop
      vertex 22.5648 22.025 0
      vertex 22.6721 22.049 1
      vertex 22.5648 22.025 1
    endloop
  endfacet
  facet normal 0.218278 -0.975887 0
    outer loop
      vertex 22.6721 22.049 1
      vertex 22.5648 22.025 0
      vertex 22.6721 22.049 0
    endloop
  endfacet
  facet normal -0.987689 -0.15643 0
    outer loop
      vertex 24.7362 20.5493 0
      vertex 24.719 20.6579 1
      vertex 24.719 20.6579 0
    endloop
  endfacet
  facet normal -0.987689 -0.15643 0
    outer loop
      vertex 24.719 20.6579 1
      vertex 24.7362 20.5493 0
      vertex 24.7362 20.5493 1
    endloop
  endfacet
  facet normal -0.995597 -0.0937354 0
    outer loop
      vertex 24.7465 20.4399 0
      vertex 24.7362 20.5493 1
      vertex 24.7362 20.5493 0
    endloop
  endfacet
  facet normal -0.995597 -0.0937354 0
    outer loop
      vertex 24.7362 20.5493 1
      vertex 24.7465 20.4399 0
      vertex 24.7465 20.4399 1
    endloop
  endfacet
  facet normal -0.826977 -0.562235 0
    outer loop
      vertex 24.4776 21.2677 0
      vertex 24.4158 21.3586 1
      vertex 24.4158 21.3586 0
    endloop
  endfacet
  facet normal -0.826977 -0.562235 0
    outer loop
      vertex 24.4158 21.3586 1
      vertex 24.4776 21.2677 0
      vertex 24.4776 21.2677 1
    endloop
  endfacet
  facet normal -0.15643 -0.987689 0
    outer loop
      vertex 23.2193 22.0662 0
      vertex 23.3279 22.049 1
      vertex 23.2193 22.0662 1
    endloop
  endfacet
  facet normal -0.15643 -0.987689 -0
    outer loop
      vertex 23.3279 22.049 1
      vertex 23.2193 22.0662 0
      vertex 23.3279 22.049 0
    endloop
  endfacet
  facet normal -0.0937354 -0.995597 0
    outer loop
      vertex 23.1099 22.0765 0
      vertex 23.2193 22.0662 1
      vertex 23.1099 22.0765 1
    endloop
  endfacet
  facet normal -0.0937354 -0.995597 -0
    outer loop
      vertex 23.2193 22.0662 1
      vertex 23.1099 22.0765 0
      vertex 23.2193 22.0662 0
    endloop
  endfacet
  facet normal -0.562235 -0.826977 0
    outer loop
      vertex 23.9377 21.8076 0
      vertex 24.0286 21.7458 1
      vertex 23.9377 21.8076 1
    endloop
  endfacet
  facet normal -0.562235 -0.826977 -0
    outer loop
      vertex 24.0286 21.7458 1
      vertex 23.9377 21.8076 0
      vertex 24.0286 21.7458 0
    endloop
  endfacet
  facet normal 0.975887 -0.218278 0
    outer loop
      vertex 21.281 20.6579 1
      vertex 21.305 20.7652 0
      vertex 21.305 20.7652 1
    endloop
  endfacet
  facet normal 0.975887 -0.218278 0
    outer loop
      vertex 21.305 20.7652 0
      vertex 21.281 20.6579 1
      vertex 21.281 20.6579 0
    endloop
  endfacet
  facet normal 0.750262 -0.66114 0
    outer loop
      vertex 21.6516 21.4455 1
      vertex 21.7243 21.528 0
      vertex 21.7243 21.528 1
    endloop
  endfacet
  facet normal 0.750262 -0.66114 0
    outer loop
      vertex 21.7243 21.528 0
      vertex 21.6516 21.4455 1
      vertex 21.6516 21.4455 0
    endloop
  endfacet
  facet normal 0.917633 -0.397429 0
    outer loop
      vertex 21.3729 20.9742 1
      vertex 21.4166 21.0751 0
      vertex 21.4166 21.0751 1
    endloop
  endfacet
  facet normal 0.917633 -0.397429 0
    outer loop
      vertex 21.4166 21.0751 0
      vertex 21.3729 20.9742 1
      vertex 21.3729 20.9742 0
    endloop
  endfacet
  facet normal 0.89113 -0.453749 0
    outer loop
      vertex 21.4166 21.0751 1
      vertex 21.4665 21.1731 0
      vertex 21.4665 21.1731 1
    endloop
  endfacet
  facet normal 0.89113 -0.453749 0
    outer loop
      vertex 21.4665 21.1731 0
      vertex 21.4166 21.0751 1
      vertex 21.4166 21.0751 0
    endloop
  endfacet
  facet normal 0.960244 -0.279162 0
    outer loop
      vertex 21.305 20.7652 1
      vertex 21.3357 20.8708 0
      vertex 21.3357 20.8708 1
    endloop
  endfacet
  facet normal 0.960244 -0.279162 0
    outer loop
      vertex 21.3357 20.8708 0
      vertex 21.305 20.7652 1
      vertex 21.305 20.7652 0
    endloop
  endfacet
  facet normal 0.995597 -0.0937354 0
    outer loop
      vertex 21.2535 20.4399 1
      vertex 21.2638 20.5493 0
      vertex 21.2638 20.5493 1
    endloop
  endfacet
  facet normal 0.995597 -0.0937354 0
    outer loop
      vertex 21.2638 20.5493 0
      vertex 21.2535 20.4399 1
      vertex 21.2535 20.4399 0
    endloop
  endfacet
  facet normal 0.508729 -0.860927 0
    outer loop
      vertex 22.0623 21.8076 0
      vertex 22.1569 21.8635 1
      vertex 22.0623 21.8076 1
    endloop
  endfacet
  facet normal 0.508729 -0.860927 0
    outer loop
      vertex 22.1569 21.8635 1
      vertex 22.0623 21.8076 0
      vertex 22.1569 21.8635 0
    endloop
  endfacet
  facet normal 0.562235 -0.826977 0
    outer loop
      vertex 21.9714 21.7458 0
      vertex 22.0623 21.8076 1
      vertex 21.9714 21.7458 1
    endloop
  endfacet
  facet normal 0.562235 -0.826977 0
    outer loop
      vertex 22.0623 21.8076 1
      vertex 21.9714 21.7458 0
      vertex 22.0623 21.8076 0
    endloop
  endfacet
  facet normal 0.61287 -0.790184 0
    outer loop
      vertex 21.8845 21.6784 0
      vertex 21.9714 21.7458 1
      vertex 21.8845 21.6784 1
    endloop
  endfacet
  facet normal 0.61287 -0.790184 0
    outer loop
      vertex 21.9714 21.7458 1
      vertex 21.8845 21.6784 0
      vertex 21.9714 21.7458 0
    endloop
  endfacet
  facet normal 0.338526 -0.940957 0
    outer loop
      vertex 22.3558 21.9571 0
      vertex 22.4592 21.9943 1
      vertex 22.3558 21.9571 1
    endloop
  endfacet
  facet normal 0.338526 -0.940957 0
    outer loop
      vertex 22.4592 21.9943 1
      vertex 22.3558 21.9571 0
      vertex 22.4592 21.9943 0
    endloop
  endfacet
  facet normal 0.15643 -0.987689 0
    outer loop
      vertex 22.6721 22.049 0
      vertex 22.7807 22.0662 1
      vertex 22.6721 22.049 1
    endloop
  endfacet
  facet normal 0.15643 -0.987689 0
    outer loop
      vertex 22.7807 22.0662 1
      vertex 22.6721 22.049 0
      vertex 22.7807 22.0662 0
    endloop
  endfacet
  facet normal -0.960244 0.279162 0
    outer loop
      vertex 24.6643 19.7892 0
      vertex 24.695 19.8948 1
      vertex 24.695 19.8948 0
    endloop
  endfacet
  facet normal -0.960244 0.279162 0
    outer loop
      vertex 24.695 19.8948 1
      vertex 24.6643 19.7892 0
      vertex 24.6643 19.7892 1
    endloop
  endfacet
  facet normal -0.707107 0.707107 0
    outer loop
      vertex 24.2757 19.132 0
      vertex 24.198 19.0543 1
      vertex 24.2757 19.132 1
    endloop
  endfacet
  facet normal -0.707107 0.707107 0
    outer loop
      vertex 24.198 19.0543 1
      vertex 24.2757 19.132 0
      vertex 24.198 19.0543 0
    endloop
  endfacet
  facet normal -0.397429 0.917633 0
    outer loop
      vertex 23.7451 18.7466 0
      vertex 23.6442 18.7029 1
      vertex 23.7451 18.7466 1
    endloop
  endfacet
  facet normal -0.397429 0.917633 0
    outer loop
      vertex 23.6442 18.7029 1
      vertex 23.7451 18.7466 0
      vertex 23.6442 18.7029 0
    endloop
  endfacet
  facet normal -0.975887 -0.218278 0
    outer loop
      vertex 24.719 20.6579 0
      vertex 24.695 20.7652 1
      vertex 24.695 20.7652 0
    endloop
  endfacet
  facet normal -0.975887 -0.218278 0
    outer loop
      vertex 24.695 20.7652 1
      vertex 24.719 20.6579 0
      vertex 24.719 20.6579 1
    endloop
  endfacet
  facet normal -0.960244 -0.279162 0
    outer loop
      vertex 24.695 20.7652 0
      vertex 24.6643 20.8708 1
      vertex 24.6643 20.8708 0
    endloop
  endfacet
  facet normal -0.960244 -0.279162 0
    outer loop
      vertex 24.6643 20.8708 1
      vertex 24.695 20.7652 0
      vertex 24.695 20.7652 1
    endloop
  endfacet
  facet normal -0.940957 -0.338526 0
    outer loop
      vertex 24.6643 20.8708 0
      vertex 24.6271 20.9742 1
      vertex 24.6271 20.9742 0
    endloop
  endfacet
  facet normal -0.940957 -0.338526 0
    outer loop
      vertex 24.6271 20.9742 1
      vertex 24.6643 20.8708 0
      vertex 24.6643 20.8708 1
    endloop
  endfacet
  facet normal -0.750262 -0.66114 0
    outer loop
      vertex 24.3484 21.4455 0
      vertex 24.2757 21.528 1
      vertex 24.2757 21.528 0
    endloop
  endfacet
  facet normal -0.750262 -0.66114 0
    outer loop
      vertex 24.2757 21.528 1
      vertex 24.3484 21.4455 0
      vertex 24.3484 21.4455 1
    endloop
  endfacet
  facet normal -0.790184 -0.61287 0
    outer loop
      vertex 24.4158 21.3586 0
      vertex 24.3484 21.4455 1
      vertex 24.3484 21.4455 0
    endloop
  endfacet
  facet normal -0.790184 -0.61287 0
    outer loop
      vertex 24.3484 21.4455 1
      vertex 24.4158 21.3586 0
      vertex 24.4158 21.3586 1
    endloop
  endfacet
  facet normal -0.707107 -0.707107 0
    outer loop
      vertex 24.198 21.6057 0
      vertex 24.2757 21.528 1
      vertex 24.198 21.6057 1
    endloop
  endfacet
  facet normal -0.707107 -0.707107 -0
    outer loop
      vertex 24.2757 21.528 1
      vertex 24.198 21.6057 0
      vertex 24.2757 21.528 0
    endloop
  endfacet
  facet normal -0.860927 -0.508729 0
    outer loop
      vertex 24.5335 21.1731 0
      vertex 24.4776 21.2677 1
      vertex 24.4776 21.2677 0
    endloop
  endfacet
  facet normal -0.860927 -0.508729 0
    outer loop
      vertex 24.4776 21.2677 1
      vertex 24.5335 21.1731 0
      vertex 24.5335 21.1731 1
    endloop
  endfacet
  facet normal -0.89113 -0.453749 0
    outer loop
      vertex 24.5834 21.0751 0
      vertex 24.5335 21.1731 1
      vertex 24.5335 21.1731 0
    endloop
  endfacet
  facet normal -0.89113 -0.453749 0
    outer loop
      vertex 24.5335 21.1731 1
      vertex 24.5834 21.0751 0
      vertex 24.5834 21.0751 1
    endloop
  endfacet
  facet normal -0.279162 -0.960244 0
    outer loop
      vertex 23.4352 22.025 0
      vertex 23.5408 21.9943 1
      vertex 23.4352 22.025 1
    endloop
  endfacet
  facet normal -0.279162 -0.960244 -0
    outer loop
      vertex 23.5408 21.9943 1
      vertex 23.4352 22.025 0
      vertex 23.5408 21.9943 0
    endloop
  endfacet
  facet normal -0.218278 -0.975887 0
    outer loop
      vertex 23.3279 22.049 0
      vertex 23.4352 22.025 1
      vertex 23.3279 22.049 1
    endloop
  endfacet
  facet normal -0.218278 -0.975887 -0
    outer loop
      vertex 23.4352 22.025 1
      vertex 23.3279 22.049 0
      vertex 23.4352 22.025 0
    endloop
  endfacet
  facet normal -0.031831 -0.999493 0
    outer loop
      vertex 23 22.08 0
      vertex 23.1099 22.0765 1
      vertex 23 22.08 1
    endloop
  endfacet
  facet normal -0.031831 -0.999493 -0
    outer loop
      vertex 23.1099 22.0765 1
      vertex 23 22.08 0
      vertex 23.1099 22.0765 0
    endloop
  endfacet
  facet normal -0.453749 -0.89113 0
    outer loop
      vertex 23.7451 21.9134 0
      vertex 23.8431 21.8635 1
      vertex 23.7451 21.9134 1
    endloop
  endfacet
  facet normal -0.453749 -0.89113 -0
    outer loop
      vertex 23.8431 21.8635 1
      vertex 23.7451 21.9134 0
      vertex 23.8431 21.8635 0
    endloop
  endfacet
  facet normal -0.397429 -0.917633 0
    outer loop
      vertex 23.6442 21.9571 0
      vertex 23.7451 21.9134 1
      vertex 23.6442 21.9571 1
    endloop
  endfacet
  facet normal -0.397429 -0.917633 -0
    outer loop
      vertex 23.7451 21.9134 1
      vertex 23.6442 21.9571 0
      vertex 23.7451 21.9134 0
    endloop
  endfacet
  facet normal -0.61287 -0.790184 0
    outer loop
      vertex 24.0286 21.7458 0
      vertex 24.1155 21.6784 1
      vertex 24.0286 21.7458 1
    endloop
  endfacet
  facet normal -0.61287 -0.790184 -0
    outer loop
      vertex 24.1155 21.6784 1
      vertex 24.0286 21.7458 0
      vertex 24.1155 21.6784 0
    endloop
  endfacet
  facet normal 0.940957 -0.338526 0
    outer loop
      vertex 21.3357 20.8708 1
      vertex 21.3729 20.9742 0
      vertex 21.3729 20.9742 1
    endloop
  endfacet
  facet normal 0.940957 -0.338526 0
    outer loop
      vertex 21.3729 20.9742 0
      vertex 21.3357 20.8708 1
      vertex 21.3357 20.8708 0
    endloop
  endfacet
  facet normal 0.987689 -0.15643 0
    outer loop
      vertex 21.2638 20.5493 1
      vertex 21.281 20.6579 0
      vertex 21.281 20.6579 1
    endloop
  endfacet
  facet normal 0.987689 -0.15643 0
    outer loop
      vertex 21.281 20.6579 0
      vertex 21.2638 20.5493 1
      vertex 21.2638 20.5493 0
    endloop
  endfacet
  facet normal 0.999493 -0.031831 0
    outer loop
      vertex 21.25 20.33 1
      vertex 21.2535 20.4399 0
      vertex 21.2535 20.4399 1
    endloop
  endfacet
  facet normal 0.999493 -0.031831 0
    outer loop
      vertex 21.2535 20.4399 0
      vertex 21.25 20.33 1
      vertex 21.25 20.33 0
    endloop
  endfacet
  facet normal 0.453749 -0.89113 0
    outer loop
      vertex 22.1569 21.8635 0
      vertex 22.2549 21.9134 1
      vertex 22.1569 21.8635 1
    endloop
  endfacet
  facet normal 0.453749 -0.89113 0
    outer loop
      vertex 22.2549 21.9134 1
      vertex 22.1569 21.8635 0
      vertex 22.2549 21.9134 0
    endloop
  endfacet
  facet normal 0.279162 -0.960244 0
    outer loop
      vertex 22.4592 21.9943 0
      vertex 22.5648 22.025 1
      vertex 22.4592 21.9943 1
    endloop
  endfacet
  facet normal 0.279162 -0.960244 0
    outer loop
      vertex 22.5648 22.025 1
      vertex 22.4592 21.9943 0
      vertex 22.5648 22.025 0
    endloop
  endfacet
  facet normal 0.0937354 -0.995597 0
    outer loop
      vertex 22.7807 22.0662 0
      vertex 22.8901 22.0765 1
      vertex 22.7807 22.0662 1
    endloop
  endfacet
  facet normal 0.0937354 -0.995597 0
    outer loop
      vertex 22.8901 22.0765 1
      vertex 22.7807 22.0662 0
      vertex 22.8901 22.0765 0
    endloop
  endfacet
  facet normal -0.999493 0.031831 0
    outer loop
      vertex 24.7465 20.2201 0
      vertex 24.75 20.33 1
      vertex 24.75 20.33 0
    endloop
  endfacet
  facet normal -0.999493 0.031831 0
    outer loop
      vertex 24.75 20.33 1
      vertex 24.7465 20.2201 0
      vertex 24.7465 20.2201 1
    endloop
  endfacet
  facet normal -0.89113 0.453749 0
    outer loop
      vertex 24.5335 19.4869 0
      vertex 24.5834 19.5849 1
      vertex 24.5834 19.5849 0
    endloop
  endfacet
  facet normal -0.89113 0.453749 0
    outer loop
      vertex 24.5834 19.5849 1
      vertex 24.5335 19.4869 0
      vertex 24.5335 19.4869 1
    endloop
  endfacet
  facet normal -0.940957 0.338526 0
    outer loop
      vertex 24.6271 19.6858 0
      vertex 24.6643 19.7892 1
      vertex 24.6643 19.7892 0
    endloop
  endfacet
  facet normal -0.940957 0.338526 0
    outer loop
      vertex 24.6643 19.7892 1
      vertex 24.6271 19.6858 0
      vertex 24.6271 19.6858 1
    endloop
  endfacet
  facet normal -0.750262 0.66114 0
    outer loop
      vertex 24.2757 19.132 0
      vertex 24.3484 19.2145 1
      vertex 24.3484 19.2145 0
    endloop
  endfacet
  facet normal -0.750262 0.66114 0
    outer loop
      vertex 24.3484 19.2145 1
      vertex 24.2757 19.132 0
      vertex 24.2757 19.132 1
    endloop
  endfacet
  facet normal -0.562235 0.826977 0
    outer loop
      vertex 24.0286 18.9142 0
      vertex 23.9377 18.8524 1
      vertex 24.0286 18.9142 1
    endloop
  endfacet
  facet normal -0.562235 0.826977 0
    outer loop
      vertex 23.9377 18.8524 1
      vertex 24.0286 18.9142 0
      vertex 23.9377 18.8524 0
    endloop
  endfacet
  facet normal -0.917633 0.397429 0
    outer loop
      vertex 24.5834 19.5849 0
      vertex 24.6271 19.6858 1
      vertex 24.6271 19.6858 0
    endloop
  endfacet
  facet normal -0.917633 0.397429 0
    outer loop
      vertex 24.6271 19.6858 1
      vertex 24.5834 19.5849 0
      vertex 24.5834 19.5849 1
    endloop
  endfacet
  facet normal 0.826977 0.562235 0
    outer loop
      vertex 21.5842 19.3014 1
      vertex 21.5224 19.3923 0
      vertex 21.5224 19.3923 1
    endloop
  endfacet
  facet normal 0.826977 0.562235 0
    outer loop
      vertex 21.5224 19.3923 0
      vertex 21.5842 19.3014 1
      vertex 21.5842 19.3014 0
    endloop
  endfacet
  facet normal -0.339331 0.940667 0
    outer loop
      vertex 23.6442 18.7029 0
      vertex 23.5408 18.6656 1
      vertex 23.6442 18.7029 1
    endloop
  endfacet
  facet normal -0.339331 0.940667 0
    outer loop
      vertex 23.5408 18.6656 1
      vertex 23.6442 18.7029 0
      vertex 23.5408 18.6656 0
    endloop
  endfacet
  facet normal 0.826977 -0.562235 0
    outer loop
      vertex 21.5224 21.2677 1
      vertex 21.5842 21.3586 0
      vertex 21.5842 21.3586 1
    endloop
  endfacet
  facet normal 0.826977 -0.562235 0
    outer loop
      vertex 21.5842 21.3586 0
      vertex 21.5224 21.2677 1
      vertex 21.5224 21.2677 0
    endloop
  endfacet
  facet normal 0.66114 -0.750262 0
    outer loop
      vertex 21.802 21.6057 0
      vertex 21.8845 21.6784 1
      vertex 21.802 21.6057 1
    endloop
  endfacet
  facet normal 0.66114 -0.750262 0
    outer loop
      vertex 21.8845 21.6784 1
      vertex 21.802 21.6057 0
      vertex 21.8845 21.6784 0
    endloop
  endfacet
  facet normal -0.987689 0.15643 0
    outer loop
      vertex 24.719 20.0021 0
      vertex 24.7362 20.1107 1
      vertex 24.7362 20.1107 0
    endloop
  endfacet
  facet normal -0.987689 0.15643 0
    outer loop
      vertex 24.7362 20.1107 1
      vertex 24.719 20.0021 0
      vertex 24.719 20.0021 1
    endloop
  endfacet
  facet normal -0.995597 0.0937354 0
    outer loop
      vertex 24.7362 20.1107 0
      vertex 24.7465 20.2201 1
      vertex 24.7465 20.2201 0
    endloop
  endfacet
  facet normal -0.995597 0.0937354 0
    outer loop
      vertex 24.7465 20.2201 1
      vertex 24.7362 20.1107 0
      vertex 24.7362 20.1107 1
    endloop
  endfacet
  facet normal -0.975887 0.218278 0
    outer loop
      vertex 24.695 19.8948 0
      vertex 24.719 20.0021 1
      vertex 24.719 20.0021 0
    endloop
  endfacet
  facet normal -0.975887 0.218278 0
    outer loop
      vertex 24.719 20.0021 1
      vertex 24.695 19.8948 0
      vertex 24.695 19.8948 1
    endloop
  endfacet
  facet normal -0.453749 0.89113 0
    outer loop
      vertex 23.8431 18.7965 0
      vertex 23.7451 18.7466 1
      vertex 23.8431 18.7965 1
    endloop
  endfacet
  facet normal -0.453749 0.89113 0
    outer loop
      vertex 23.7451 18.7466 1
      vertex 23.8431 18.7965 0
      vertex 23.7451 18.7466 0
    endloop
  endfacet
  facet normal -0.860927 0.508729 0
    outer loop
      vertex 24.4776 19.3923 0
      vertex 24.5335 19.4869 1
      vertex 24.5335 19.4869 0
    endloop
  endfacet
  facet normal -0.860927 0.508729 0
    outer loop
      vertex 24.5335 19.4869 1
      vertex 24.4776 19.3923 0
      vertex 24.4776 19.3923 1
    endloop
  endfacet
  facet normal 0.339331 0.940667 -0
    outer loop
      vertex 22.4592 18.6656 0
      vertex 22.3558 18.7029 1
      vertex 22.4592 18.6656 1
    endloop
  endfacet
  facet normal 0.339331 0.940667 0
    outer loop
      vertex 22.3558 18.7029 1
      vertex 22.4592 18.6656 0
      vertex 22.3558 18.7029 0
    endloop
  endfacet
  facet normal 0.15643 0.987689 -0
    outer loop
      vertex 22.7807 18.5938 0
      vertex 22.6721 18.611 1
      vertex 22.7807 18.5938 1
    endloop
  endfacet
  facet normal 0.15643 0.987689 0
    outer loop
      vertex 22.6721 18.611 1
      vertex 22.7807 18.5938 0
      vertex 22.6721 18.611 0
    endloop
  endfacet
  facet normal 0.0937354 0.995597 -0
    outer loop
      vertex 22.8901 18.5835 0
      vertex 22.7807 18.5938 1
      vertex 22.8901 18.5835 1
    endloop
  endfacet
  facet normal 0.0937354 0.995597 0
    outer loop
      vertex 22.7807 18.5938 1
      vertex 22.8901 18.5835 0
      vertex 22.7807 18.5938 0
    endloop
  endfacet
  facet normal 0.66114 0.750262 -0
    outer loop
      vertex 21.8845 18.9816 0
      vertex 21.802 19.0543 1
      vertex 21.8845 18.9816 1
    endloop
  endfacet
  facet normal 0.66114 0.750262 0
    outer loop
      vertex 21.802 19.0543 1
      vertex 21.8845 18.9816 0
      vertex 21.802 19.0543 0
    endloop
  endfacet
  facet normal 0.707107 0.707107 0
    outer loop
      vertex 21.802 19.0543 1
      vertex 21.7243 19.132 0
      vertex 21.7243 19.132 1
    endloop
  endfacet
  facet normal 0.707107 0.707107 0
    outer loop
      vertex 21.7243 19.132 0
      vertex 21.802 19.0543 1
      vertex 21.802 19.0543 0
    endloop
  endfacet
  facet normal 0.89113 0.453749 0
    outer loop
      vertex 21.4665 19.4869 1
      vertex 21.4166 19.5849 0
      vertex 21.4166 19.5849 1
    endloop
  endfacet
  facet normal 0.89113 0.453749 0
    outer loop
      vertex 21.4166 19.5849 0
      vertex 21.4665 19.4869 1
      vertex 21.4665 19.4869 0
    endloop
  endfacet
  facet normal 0.917633 0.397429 0
    outer loop
      vertex 21.4166 19.5849 1
      vertex 21.3729 19.6858 0
      vertex 21.3729 19.6858 1
    endloop
  endfacet
  facet normal 0.917633 0.397429 0
    outer loop
      vertex 21.3729 19.6858 0
      vertex 21.4166 19.5849 1
      vertex 21.4166 19.5849 0
    endloop
  endfacet
  facet normal 0.960244 0.279162 0
    outer loop
      vertex 21.3357 19.7892 1
      vertex 21.305 19.8948 0
      vertex 21.305 19.8948 1
    endloop
  endfacet
  facet normal 0.960244 0.279162 0
    outer loop
      vertex 21.305 19.8948 0
      vertex 21.3357 19.7892 1
      vertex 21.3357 19.7892 0
    endloop
  endfacet
  facet normal 0.995597 0.0937354 0
    outer loop
      vertex 21.2638 20.1107 1
      vertex 21.2535 20.2201 0
      vertex 21.2535 20.2201 1
    endloop
  endfacet
  facet normal 0.995597 0.0937354 0
    outer loop
      vertex 21.2535 20.2201 0
      vertex 21.2638 20.1107 1
      vertex 21.2638 20.1107 0
    endloop
  endfacet
  facet normal 0.987689 0.15643 0
    outer loop
      vertex 21.281 20.0021 1
      vertex 21.2638 20.1107 0
      vertex 21.2638 20.1107 1
    endloop
  endfacet
  facet normal 0.987689 0.15643 0
    outer loop
      vertex 21.2638 20.1107 0
      vertex 21.281 20.0021 1
      vertex 21.281 20.0021 0
    endloop
  endfacet
  facet normal 0.975887 0.218278 0
    outer loop
      vertex 21.305 19.8948 1
      vertex 21.281 20.0021 0
      vertex 21.281 20.0021 1
    endloop
  endfacet
  facet normal 0.975887 0.218278 0
    outer loop
      vertex 21.281 20.0021 0
      vertex 21.305 19.8948 1
      vertex 21.305 19.8948 0
    endloop
  endfacet
  facet normal -0.15643 0.987689 0
    outer loop
      vertex 23.3279 18.611 0
      vertex 23.2193 18.5938 1
      vertex 23.3279 18.611 1
    endloop
  endfacet
  facet normal -0.15643 0.987689 0
    outer loop
      vertex 23.2193 18.5938 1
      vertex 23.3279 18.611 0
      vertex 23.2193 18.5938 0
    endloop
  endfacet
  facet normal -0.0937354 0.995597 0
    outer loop
      vertex 23.2193 18.5938 0
      vertex 23.1099 18.5835 1
      vertex 23.2193 18.5938 1
    endloop
  endfacet
  facet normal -0.0937354 0.995597 0
    outer loop
      vertex 23.1099 18.5835 1
      vertex 23.2193 18.5938 0
      vertex 23.1099 18.5835 0
    endloop
  endfacet
  facet normal -0.826977 0.562235 0
    outer loop
      vertex 24.4158 19.3014 0
      vertex 24.4776 19.3923 1
      vertex 24.4776 19.3923 0
    endloop
  endfacet
  facet normal -0.826977 0.562235 0
    outer loop
      vertex 24.4776 19.3923 1
      vertex 24.4158 19.3014 0
      vertex 24.4158 19.3014 1
    endloop
  endfacet
  facet normal -0.790184 0.61287 0
    outer loop
      vertex 24.3484 19.2145 0
      vertex 24.4158 19.3014 1
      vertex 24.4158 19.3014 0
    endloop
  endfacet
  facet normal -0.790184 0.61287 0
    outer loop
      vertex 24.4158 19.3014 1
      vertex 24.3484 19.2145 0
      vertex 24.3484 19.2145 1
    endloop
  endfacet
  facet normal -0.66114 0.750262 0
    outer loop
      vertex 24.198 19.0543 0
      vertex 24.1155 18.9816 1
      vertex 24.198 19.0543 1
    endloop
  endfacet
  facet normal -0.66114 0.750262 0
    outer loop
      vertex 24.1155 18.9816 1
      vertex 24.198 19.0543 0
      vertex 24.1155 18.9816 0
    endloop
  endfacet
  facet normal -0.61287 0.790184 0
    outer loop
      vertex 24.1155 18.9816 0
      vertex 24.0286 18.9142 1
      vertex 24.1155 18.9816 1
    endloop
  endfacet
  facet normal -0.61287 0.790184 0
    outer loop
      vertex 24.0286 18.9142 1
      vertex 24.1155 18.9816 0
      vertex 24.0286 18.9142 0
    endloop
  endfacet
  facet normal 0.031831 0.999493 -0
    outer loop
      vertex 23 18.58 0
      vertex 22.8901 18.5835 1
      vertex 23 18.58 1
    endloop
  endfacet
  facet normal 0.031831 0.999493 0
    outer loop
      vertex 22.8901 18.5835 1
      vertex 23 18.58 0
      vertex 22.8901 18.5835 0
    endloop
  endfacet
  facet normal 0.218278 0.975887 -0
    outer loop
      vertex 22.6721 18.611 0
      vertex 22.5648 18.635 1
      vertex 22.6721 18.611 1
    endloop
  endfacet
  facet normal 0.218278 0.975887 0
    outer loop
      vertex 22.5648 18.635 1
      vertex 22.6721 18.611 0
      vertex 22.5648 18.635 0
    endloop
  endfacet
  facet normal 0.61287 0.790184 -0
    outer loop
      vertex 21.9714 18.9142 0
      vertex 21.8845 18.9816 1
      vertex 21.9714 18.9142 1
    endloop
  endfacet
  facet normal 0.61287 0.790184 0
    outer loop
      vertex 21.8845 18.9816 1
      vertex 21.9714 18.9142 0
      vertex 21.8845 18.9816 0
    endloop
  endfacet
  facet normal 0.397429 0.917633 -0
    outer loop
      vertex 22.3558 18.7029 0
      vertex 22.2549 18.7466 1
      vertex 22.3558 18.7029 1
    endloop
  endfacet
  facet normal 0.397429 0.917633 0
    outer loop
      vertex 22.2549 18.7466 1
      vertex 22.3558 18.7029 0
      vertex 22.2549 18.7466 0
    endloop
  endfacet
  facet normal 0.508729 0.860927 -0
    outer loop
      vertex 22.1569 18.7965 0
      vertex 22.0623 18.8524 1
      vertex 22.1569 18.7965 1
    endloop
  endfacet
  facet normal 0.508729 0.860927 0
    outer loop
      vertex 22.0623 18.8524 1
      vertex 22.1569 18.7965 0
      vertex 22.0623 18.8524 0
    endloop
  endfacet
  facet normal 0.750262 0.66114 0
    outer loop
      vertex 21.7243 19.132 1
      vertex 21.6516 19.2145 0
      vertex 21.6516 19.2145 1
    endloop
  endfacet
  facet normal 0.750262 0.66114 0
    outer loop
      vertex 21.6516 19.2145 0
      vertex 21.7243 19.132 1
      vertex 21.7243 19.132 0
    endloop
  endfacet
  facet normal 0.790184 0.61287 0
    outer loop
      vertex 21.6516 19.2145 1
      vertex 21.5842 19.3014 0
      vertex 21.5842 19.3014 1
    endloop
  endfacet
  facet normal 0.790184 0.61287 0
    outer loop
      vertex 21.5842 19.3014 0
      vertex 21.6516 19.2145 1
      vertex 21.6516 19.2145 0
    endloop
  endfacet
  facet normal 0.860927 0.508729 0
    outer loop
      vertex 21.5224 19.3923 1
      vertex 21.4665 19.4869 0
      vertex 21.4665 19.4869 1
    endloop
  endfacet
  facet normal 0.860927 0.508729 0
    outer loop
      vertex 21.4665 19.4869 0
      vertex 21.5224 19.3923 1
      vertex 21.5224 19.3923 0
    endloop
  endfacet
  facet normal 0.940957 0.338526 0
    outer loop
      vertex 21.3729 19.6858 1
      vertex 21.3357 19.7892 0
      vertex 21.3357 19.7892 1
    endloop
  endfacet
  facet normal 0.940957 0.338526 0
    outer loop
      vertex 21.3357 19.7892 0
      vertex 21.3729 19.6858 1
      vertex 21.3729 19.6858 0
    endloop
  endfacet
  facet normal -0.278323 0.960488 0
    outer loop
      vertex 23.5408 18.6656 0
      vertex 23.4352 18.635 1
      vertex 23.5408 18.6656 1
    endloop
  endfacet
  facet normal -0.278323 0.960488 0
    outer loop
      vertex 23.4352 18.635 1
      vertex 23.5408 18.6656 0
      vertex 23.4352 18.635 0
    endloop
  endfacet
  facet normal -0.218278 0.975887 0
    outer loop
      vertex 23.4352 18.635 0
      vertex 23.3279 18.611 1
      vertex 23.4352 18.635 1
    endloop
  endfacet
  facet normal -0.218278 0.975887 0
    outer loop
      vertex 23.3279 18.611 1
      vertex 23.4352 18.635 0
      vertex 23.3279 18.611 0
    endloop
  endfacet
  facet normal -0.508729 0.860927 0
    outer loop
      vertex 23.9377 18.8524 0
      vertex 23.8431 18.7965 1
      vertex 23.9377 18.8524 1
    endloop
  endfacet
  facet normal -0.508729 0.860927 0
    outer loop
      vertex 23.8431 18.7965 1
      vertex 23.9377 18.8524 0
      vertex 23.8431 18.7965 0
    endloop
  endfacet
  facet normal 0.278323 0.960488 -0
    outer loop
      vertex 22.5648 18.635 0
      vertex 22.4592 18.6656 1
      vertex 22.5648 18.635 1
    endloop
  endfacet
  facet normal 0.278323 0.960488 0
    outer loop
      vertex 22.4592 18.6656 1
      vertex 22.5648 18.635 0
      vertex 22.4592 18.6656 0
    endloop
  endfacet
  facet normal 0.562235 0.826977 -0
    outer loop
      vertex 22.0623 18.8524 0
      vertex 21.9714 18.9142 1
      vertex 22.0623 18.8524 1
    endloop
  endfacet
  facet normal 0.562235 0.826977 0
    outer loop
      vertex 21.9714 18.9142 1
      vertex 22.0623 18.8524 0
      vertex 21.9714 18.9142 0
    endloop
  endfacet
  facet normal 0.453749 0.89113 -0
    outer loop
      vertex 22.2549 18.7466 0
      vertex 22.1569 18.7965 1
      vertex 22.2549 18.7466 1
    endloop
  endfacet
  facet normal 0.453749 0.89113 0
    outer loop
      vertex 22.1569 18.7965 1
      vertex 22.2549 18.7466 0
      vertex 22.1569 18.7965 0
    endloop
  endfacet
endsolid OpenSCAD_Model
