solid OpenSCAD_Model
  facet normal -1 0 0
    outer loop
      vertex 0 0 0
      vertex 0 76.2 8
      vertex 0 76.2 0
    endloop
  endfacet
  facet normal -1 -0 0
    outer loop
      vertex 0 76.2 8
      vertex 0 0 0
      vertex 0 0 8
    endloop
  endfacet
  facet normal 0 0 1
    outer loop
      vertex 57.15 76.2 8
      vertex 56.15 75.2 8
      vertex 57.15 0 8
    endloop
  endfacet
  facet normal 0 0 1
    outer loop
      vertex 57.15 76.2 8
      vertex 1 75.2 8
      vertex 56.15 75.2 8
    endloop
  endfacet
  facet normal 0 0 1
    outer loop
      vertex 1 75.2 8
      vertex 0 76.2 8
      vertex 1 1 8
    endloop
  endfacet
  facet normal -0 0 1
    outer loop
      vertex 0 76.2 8
      vertex 1 75.2 8
      vertex 57.15 76.2 8
    endloop
  endfacet
  facet normal -0 0 1
    outer loop
      vertex 56.15 1 8
      vertex 57.15 0 8
      vertex 56.15 75.2 8
    endloop
  endfacet
  facet normal 0 0 1
    outer loop
      vertex 48.15 0 8
      vertex 56.15 1 8
      vertex 48.15 1 8
    endloop
  endfacet
  facet normal 0 0 1
    outer loop
      vertex 56.15 1 8
      vertex 48.15 0 8
      vertex 57.15 0 8
    endloop
  endfacet
  facet normal -0 0 1
    outer loop
      vertex 1 1 8
      vertex 25.15 0 8
      vertex 25.15 1 8
    endloop
  endfacet
  facet normal 0 0 1
    outer loop
      vertex 1 1 8
      vertex 0 0 8
      vertex 25.15 0 8
    endloop
  endfacet
  facet normal 0 0 1
    outer loop
      vertex 0 0 8
      vertex 1 1 8
      vertex 0 76.2 8
    endloop
  endfacet
  facet normal 1 -0 0
    outer loop
      vertex 57.15 0 8
      vertex 57.15 76.2 0
      vertex 57.15 76.2 8
    endloop
  endfacet
  facet normal 1 0 0
    outer loop
      vertex 57.15 76.2 0
      vertex 57.15 0 8
      vertex 57.15 0 0
    endloop
  endfacet
  facet normal 0 1 -0
    outer loop
      vertex 57.15 76.2 0
      vertex 0 76.2 8
      vertex 57.15 76.2 8
    endloop
  endfacet
  facet normal 0 1 0
    outer loop
      vertex 0 76.2 8
      vertex 57.15 76.2 0
      vertex 0 76.2 0
    endloop
  endfacet
  facet normal 0 0 -1
    outer loop
      vertex 35.8965 30.4399 0
      vertex 57.15 0 0
      vertex 35.9 30.33 0
    endloop
  endfacet
  facet normal 0 0 -1
    outer loop
      vertex 57.15 0 0
      vertex 35.8965 30.2201 0
      vertex 35.9 30.33 0
    endloop
  endfacet
  facet normal 0 0 -1
    outer loop
      vertex 57.15 0 0
      vertex 35.8862 30.1107 0
      vertex 35.8965 30.2201 0
    endloop
  endfacet
  facet normal 0 0 -1
    outer loop
      vertex 57.15 0 0
      vertex 35.869 30.0021 0
      vertex 35.8862 30.1107 0
    endloop
  endfacet
  facet normal 0 0 -1
    outer loop
      vertex 57.15 0 0
      vertex 35.845 29.8948 0
      vertex 35.869 30.0021 0
    endloop
  endfacet
  facet normal 0 0 -1
    outer loop
      vertex 57.15 0 0
      vertex 35.8143 29.7892 0
      vertex 35.845 29.8948 0
    endloop
  endfacet
  facet normal 0 0 -1
    outer loop
      vertex 57.15 0 0
      vertex 35.7771 29.6858 0
      vertex 35.8143 29.7892 0
    endloop
  endfacet
  facet normal 0 0 -1
    outer loop
      vertex 57.15 0 0
      vertex 35.7334 29.5849 0
      vertex 35.7771 29.6858 0
    endloop
  endfacet
  facet normal 0 0 -1
    outer loop
      vertex 57.15 0 0
      vertex 35.6835 29.4869 0
      vertex 35.7334 29.5849 0
    endloop
  endfacet
  facet normal 0 0 -1
    outer loop
      vertex 57.15 0 0
      vertex 35.6276 29.3923 0
      vertex 35.6835 29.4869 0
    endloop
  endfacet
  facet normal 0 0 -1
    outer loop
      vertex 57.15 0 0
      vertex 35.5658 29.3014 0
      vertex 35.6276 29.3923 0
    endloop
  endfacet
  facet normal 0 0 -1
    outer loop
      vertex 57.15 0 0
      vertex 35.4984 29.2145 0
      vertex 35.5658 29.3014 0
    endloop
  endfacet
  facet normal 0 0 -1
    outer loop
      vertex 57.15 0 0
      vertex 35.4257 29.132 0
      vertex 35.4984 29.2145 0
    endloop
  endfacet
  facet normal 0 0 -1
    outer loop
      vertex 57.15 0 0
      vertex 35.348 29.0543 0
      vertex 35.4257 29.132 0
    endloop
  endfacet
  facet normal 0 0 -1
    outer loop
      vertex 57.15 0 0
      vertex 35.2655 28.9816 0
      vertex 35.348 29.0543 0
    endloop
  endfacet
  facet normal 0 0 -1
    outer loop
      vertex 57.15 0 0
      vertex 35.1786 28.9142 0
      vertex 35.2655 28.9816 0
    endloop
  endfacet
  facet normal 0 0 -1
    outer loop
      vertex 57.15 0 0
      vertex 35.0877 28.8524 0
      vertex 35.1786 28.9142 0
    endloop
  endfacet
  facet normal 0 0 -1
    outer loop
      vertex 57.15 0 0
      vertex 34.9931 28.7965 0
      vertex 35.0877 28.8524 0
    endloop
  endfacet
  facet normal 0 0 -1
    outer loop
      vertex 57.15 0 0
      vertex 34.8951 28.7466 0
      vertex 34.9931 28.7965 0
    endloop
  endfacet
  facet normal 0 0 -1
    outer loop
      vertex 57.15 0 0
      vertex 34.7942 28.7029 0
      vertex 34.8951 28.7466 0
    endloop
  endfacet
  facet normal 0 0 -1
    outer loop
      vertex 57.15 0 0
      vertex 34.6908 28.6656 0
      vertex 34.7942 28.7029 0
    endloop
  endfacet
  facet normal 0 0 -1
    outer loop
      vertex 57.15 0 0
      vertex 34.5852 28.635 0
      vertex 34.6908 28.6656 0
    endloop
  endfacet
  facet normal 0 0 -1
    outer loop
      vertex 57.15 0 0
      vertex 34.4779 28.611 0
      vertex 34.5852 28.635 0
    endloop
  endfacet
  facet normal 0 0 -1
    outer loop
      vertex 57.15 0 0
      vertex 34.3693 28.5938 0
      vertex 34.4779 28.611 0
    endloop
  endfacet
  facet normal 0 0 -1
    outer loop
      vertex 57.15 0 0
      vertex 34.2599 28.5835 0
      vertex 34.3693 28.5938 0
    endloop
  endfacet
  facet normal 0 0 -1
    outer loop
      vertex 57.15 0 0
      vertex 34.15 28.58 0
      vertex 34.2599 28.5835 0
    endloop
  endfacet
  facet normal 0 0 -1
    outer loop
      vertex 57.15 0 0
      vertex 34.0401 28.5835 0
      vertex 34.15 28.58 0
    endloop
  endfacet
  facet normal 0 0 -1
    outer loop
      vertex 57.15 0 0
      vertex 33.9307 28.5938 0
      vertex 34.0401 28.5835 0
    endloop
  endfacet
  facet normal 0 0 -1
    outer loop
      vertex 57.15 0 0
      vertex 33.8221 28.611 0
      vertex 33.9307 28.5938 0
    endloop
  endfacet
  facet normal 0 0 -1
    outer loop
      vertex 0 0 0
      vertex 33.8221 28.611 0
      vertex 57.15 0 0
    endloop
  endfacet
  facet normal -0 0 -1
    outer loop
      vertex 33.8221 28.611 0
      vertex 0 0 0
      vertex 33.7148 28.635 0
    endloop
  endfacet
  facet normal -0 0 -1
    outer loop
      vertex 33.7148 28.635 0
      vertex 0 0 0
      vertex 33.6092 28.6656 0
    endloop
  endfacet
  facet normal -0 0 -1
    outer loop
      vertex 33.6092 28.6656 0
      vertex 0 0 0
      vertex 33.5058 28.7029 0
    endloop
  endfacet
  facet normal -0 0 -1
    outer loop
      vertex 33.5058 28.7029 0
      vertex 0 0 0
      vertex 33.4049 28.7466 0
    endloop
  endfacet
  facet normal -0 0 -1
    outer loop
      vertex 33.4049 28.7466 0
      vertex 0 0 0
      vertex 33.3069 28.7965 0
    endloop
  endfacet
  facet normal -0 0 -1
    outer loop
      vertex 33.3069 28.7965 0
      vertex 0 0 0
      vertex 33.2123 28.8524 0
    endloop
  endfacet
  facet normal -0 0 -1
    outer loop
      vertex 33.2123 28.8524 0
      vertex 0 0 0
      vertex 33.1214 28.9142 0
    endloop
  endfacet
  facet normal -0 0 -1
    outer loop
      vertex 33.1214 28.9142 0
      vertex 0 0 0
      vertex 33.0345 28.9816 0
    endloop
  endfacet
  facet normal -0 0 -1
    outer loop
      vertex 33.0345 28.9816 0
      vertex 0 0 0
      vertex 32.952 29.0543 0
    endloop
  endfacet
  facet normal -0 0 -1
    outer loop
      vertex 32.952 29.0543 0
      vertex 0 0 0
      vertex 32.8743 29.132 0
    endloop
  endfacet
  facet normal -0 0 -1
    outer loop
      vertex 32.4035 30.2201 0
      vertex 0 0 0
      vertex 32.4 30.33 0
    endloop
  endfacet
  facet normal -0 0 -1
    outer loop
      vertex 32.4138 30.1107 0
      vertex 0 0 0
      vertex 32.4035 30.2201 0
    endloop
  endfacet
  facet normal -0 0 -1
    outer loop
      vertex 32.431 30.0021 0
      vertex 0 0 0
      vertex 32.4138 30.1107 0
    endloop
  endfacet
  facet normal -0 0 -1
    outer loop
      vertex 32.455 29.8948 0
      vertex 0 0 0
      vertex 32.431 30.0021 0
    endloop
  endfacet
  facet normal -0 0 -1
    outer loop
      vertex 32.4856 29.7892 0
      vertex 0 0 0
      vertex 32.455 29.8948 0
    endloop
  endfacet
  facet normal -0 0 -1
    outer loop
      vertex 32.5229 29.6858 0
      vertex 0 0 0
      vertex 32.4856 29.7892 0
    endloop
  endfacet
  facet normal -0 0 -1
    outer loop
      vertex 32.5666 29.5849 0
      vertex 0 0 0
      vertex 32.5229 29.6858 0
    endloop
  endfacet
  facet normal -0 0 -1
    outer loop
      vertex 32.6165 29.4869 0
      vertex 0 0 0
      vertex 32.5666 29.5849 0
    endloop
  endfacet
  facet normal -0 0 -1
    outer loop
      vertex 32.6724 29.3923 0
      vertex 0 0 0
      vertex 32.6165 29.4869 0
    endloop
  endfacet
  facet normal -0 0 -1
    outer loop
      vertex 32.7342 29.3014 0
      vertex 0 0 0
      vertex 32.6724 29.3923 0
    endloop
  endfacet
  facet normal -0 0 -1
    outer loop
      vertex 32.8016 29.2145 0
      vertex 0 0 0
      vertex 32.7342 29.3014 0
    endloop
  endfacet
  facet normal -0 0 -1
    outer loop
      vertex 32.8743 29.132 0
      vertex 0 0 0
      vertex 32.8016 29.2145 0
    endloop
  endfacet
  facet normal 0 0 -1
    outer loop
      vertex 35.8862 30.5493 0
      vertex 57.15 0 0
      vertex 35.8965 30.4399 0
    endloop
  endfacet
  facet normal 0 0 -1
    outer loop
      vertex 35.869 30.6579 0
      vertex 57.15 0 0
      vertex 35.8862 30.5493 0
    endloop
  endfacet
  facet normal 0 0 -1
    outer loop
      vertex 57.15 0 0
      vertex 35.869 30.6579 0
      vertex 57.15 76.2 0
    endloop
  endfacet
  facet normal 0 0 -1
    outer loop
      vertex 35.845 30.7652 0
      vertex 57.15 76.2 0
      vertex 35.869 30.6579 0
    endloop
  endfacet
  facet normal 0 0 -1
    outer loop
      vertex 35.8143 30.8708 0
      vertex 57.15 76.2 0
      vertex 35.845 30.7652 0
    endloop
  endfacet
  facet normal 0 0 -1
    outer loop
      vertex 35.7771 30.9742 0
      vertex 57.15 76.2 0
      vertex 35.8143 30.8708 0
    endloop
  endfacet
  facet normal 0 0 -1
    outer loop
      vertex 35.7334 31.0751 0
      vertex 57.15 76.2 0
      vertex 35.7771 30.9742 0
    endloop
  endfacet
  facet normal 0 0 -1
    outer loop
      vertex 35.6835 31.1731 0
      vertex 57.15 76.2 0
      vertex 35.7334 31.0751 0
    endloop
  endfacet
  facet normal 0 0 -1
    outer loop
      vertex 35.6276 31.2677 0
      vertex 57.15 76.2 0
      vertex 35.6835 31.1731 0
    endloop
  endfacet
  facet normal 0 0 -1
    outer loop
      vertex 35.5658 31.3586 0
      vertex 57.15 76.2 0
      vertex 35.6276 31.2677 0
    endloop
  endfacet
  facet normal 0 0 -1
    outer loop
      vertex 35.4984 31.4455 0
      vertex 57.15 76.2 0
      vertex 35.5658 31.3586 0
    endloop
  endfacet
  facet normal 0 0 -1
    outer loop
      vertex 35.4257 31.528 0
      vertex 57.15 76.2 0
      vertex 35.4984 31.4455 0
    endloop
  endfacet
  facet normal 0 0 -1
    outer loop
      vertex 35.348 31.6057 0
      vertex 57.15 76.2 0
      vertex 35.4257 31.528 0
    endloop
  endfacet
  facet normal 0 0 -1
    outer loop
      vertex 35.2655 31.6784 0
      vertex 57.15 76.2 0
      vertex 35.348 31.6057 0
    endloop
  endfacet
  facet normal 0 0 -1
    outer loop
      vertex 35.1786 31.7458 0
      vertex 57.15 76.2 0
      vertex 35.2655 31.6784 0
    endloop
  endfacet
  facet normal 0 0 -1
    outer loop
      vertex 35.0877 31.8076 0
      vertex 57.15 76.2 0
      vertex 35.1786 31.7458 0
    endloop
  endfacet
  facet normal 0 0 -1
    outer loop
      vertex 34.9931 31.8635 0
      vertex 57.15 76.2 0
      vertex 35.0877 31.8076 0
    endloop
  endfacet
  facet normal 0 0 -1
    outer loop
      vertex 34.8951 31.9134 0
      vertex 57.15 76.2 0
      vertex 34.9931 31.8635 0
    endloop
  endfacet
  facet normal 0 0 -1
    outer loop
      vertex 34.7942 31.9571 0
      vertex 57.15 76.2 0
      vertex 34.8951 31.9134 0
    endloop
  endfacet
  facet normal 0 0 -1
    outer loop
      vertex 34.6908 31.9943 0
      vertex 57.15 76.2 0
      vertex 34.7942 31.9571 0
    endloop
  endfacet
  facet normal 0 0 -1
    outer loop
      vertex 34.5852 32.025 0
      vertex 57.15 76.2 0
      vertex 34.6908 31.9943 0
    endloop
  endfacet
  facet normal 0 0 -1
    outer loop
      vertex 34.4779 32.049 0
      vertex 57.15 76.2 0
      vertex 34.5852 32.025 0
    endloop
  endfacet
  facet normal 0 0 -1
    outer loop
      vertex 34.3693 32.0662 0
      vertex 57.15 76.2 0
      vertex 34.4779 32.049 0
    endloop
  endfacet
  facet normal 0 0 -1
    outer loop
      vertex 34.2599 32.0765 0
      vertex 57.15 76.2 0
      vertex 34.3693 32.0662 0
    endloop
  endfacet
  facet normal 0 0 -1
    outer loop
      vertex 34.15 32.08 0
      vertex 57.15 76.2 0
      vertex 34.2599 32.0765 0
    endloop
  endfacet
  facet normal 0 0 -1
    outer loop
      vertex 34.0401 32.0765 0
      vertex 57.15 76.2 0
      vertex 34.15 32.08 0
    endloop
  endfacet
  facet normal 0 0 -1
    outer loop
      vertex 33.9307 32.0662 0
      vertex 57.15 76.2 0
      vertex 34.0401 32.0765 0
    endloop
  endfacet
  facet normal 0 0 -1
    outer loop
      vertex 33.8221 32.049 0
      vertex 57.15 76.2 0
      vertex 33.9307 32.0662 0
    endloop
  endfacet
  facet normal 0 0 -1
    outer loop
      vertex 0 76.2 0
      vertex 33.8221 32.049 0
      vertex 33.7148 32.025 0
    endloop
  endfacet
  facet normal 0 0 -1
    outer loop
      vertex 0 76.2 0
      vertex 33.7148 32.025 0
      vertex 33.6092 31.9943 0
    endloop
  endfacet
  facet normal 0 0 -1
    outer loop
      vertex 0 76.2 0
      vertex 33.6092 31.9943 0
      vertex 33.5058 31.9571 0
    endloop
  endfacet
  facet normal 0 0 -1
    outer loop
      vertex 0 76.2 0
      vertex 33.5058 31.9571 0
      vertex 33.4049 31.9134 0
    endloop
  endfacet
  facet normal 0 0 -1
    outer loop
      vertex 0 76.2 0
      vertex 33.4049 31.9134 0
      vertex 33.3069 31.8635 0
    endloop
  endfacet
  facet normal 0 0 -1
    outer loop
      vertex 0 76.2 0
      vertex 33.3069 31.8635 0
      vertex 33.2123 31.8076 0
    endloop
  endfacet
  facet normal 0 0 -1
    outer loop
      vertex 0 76.2 0
      vertex 33.2123 31.8076 0
      vertex 33.1214 31.7458 0
    endloop
  endfacet
  facet normal 0 0 -1
    outer loop
      vertex 0 76.2 0
      vertex 33.1214 31.7458 0
      vertex 33.0345 31.6784 0
    endloop
  endfacet
  facet normal 0 0 -1
    outer loop
      vertex 0 76.2 0
      vertex 33.0345 31.6784 0
      vertex 32.952 31.6057 0
    endloop
  endfacet
  facet normal 0 0 -1
    outer loop
      vertex 0 76.2 0
      vertex 32.952 31.6057 0
      vertex 32.8743 31.528 0
    endloop
  endfacet
  facet normal 0 0 -1
    outer loop
      vertex 0 76.2 0
      vertex 32.8743 31.528 0
      vertex 32.8016 31.4455 0
    endloop
  endfacet
  facet normal 0 0 -1
    outer loop
      vertex 0 76.2 0
      vertex 32.8016 31.4455 0
      vertex 32.7342 31.3586 0
    endloop
  endfacet
  facet normal 0 0 -1
    outer loop
      vertex 0 76.2 0
      vertex 32.7342 31.3586 0
      vertex 32.6724 31.2677 0
    endloop
  endfacet
  facet normal 0 0 -1
    outer loop
      vertex 0 76.2 0
      vertex 32.6724 31.2677 0
      vertex 32.6165 31.1731 0
    endloop
  endfacet
  facet normal 0 0 -1
    outer loop
      vertex 0 0 0
      vertex 32.4035 30.4399 0
      vertex 32.4 30.33 0
    endloop
  endfacet
  facet normal 0 0 -1
    outer loop
      vertex 0 0 0
      vertex 32.4138 30.5493 0
      vertex 32.4035 30.4399 0
    endloop
  endfacet
  facet normal 0 0 -1
    outer loop
      vertex 0 0 0
      vertex 32.431 30.6579 0
      vertex 32.4138 30.5493 0
    endloop
  endfacet
  facet normal 0 0 -1
    outer loop
      vertex 0 76.2 0
      vertex 32.431 30.6579 0
      vertex 0 0 0
    endloop
  endfacet
  facet normal 0 0 -1
    outer loop
      vertex 32.431 30.6579 0
      vertex 0 76.2 0
      vertex 32.455 30.7652 0
    endloop
  endfacet
  facet normal 0 0 -1
    outer loop
      vertex 32.455 30.7652 0
      vertex 0 76.2 0
      vertex 32.4856 30.8708 0
    endloop
  endfacet
  facet normal 0 0 -1
    outer loop
      vertex 32.4856 30.8708 0
      vertex 0 76.2 0
      vertex 32.5229 30.9742 0
    endloop
  endfacet
  facet normal 0 0 -1
    outer loop
      vertex 32.5229 30.9742 0
      vertex 0 76.2 0
      vertex 32.5666 31.0751 0
    endloop
  endfacet
  facet normal 0 0 -1
    outer loop
      vertex 32.5666 31.0751 0
      vertex 0 76.2 0
      vertex 32.6165 31.1731 0
    endloop
  endfacet
  facet normal 0 0 -1
    outer loop
      vertex 33.8221 32.049 0
      vertex 0 76.2 0
      vertex 57.15 76.2 0
    endloop
  endfacet
  facet normal 0 -1 0
    outer loop
      vertex 0 0 8
      vertex 25.15 0 1
      vertex 25.15 0 8
    endloop
  endfacet
  facet normal 0 -1 0
    outer loop
      vertex 57.15 0 0
      vertex 25.15 0 1
      vertex 0 0 0
    endloop
  endfacet
  facet normal 0 -1 0
    outer loop
      vertex 0 0 0
      vertex 25.15 0 1
      vertex 0 0 8
    endloop
  endfacet
  facet normal 0 -1 0
    outer loop
      vertex 48.15 0 1
      vertex 57.15 0 8
      vertex 48.15 0 8
    endloop
  endfacet
  facet normal 0 -1 0
    outer loop
      vertex 48.15 0 1
      vertex 57.15 0 0
      vertex 57.15 0 8
    endloop
  endfacet
  facet normal 0 -1 0
    outer loop
      vertex 25.15 0 1
      vertex 57.15 0 0
      vertex 48.15 0 1
    endloop
  endfacet
  facet normal 1 -0 0
    outer loop
      vertex 1 1 8
      vertex 1 75.2 1
      vertex 1 75.2 8
    endloop
  endfacet
  facet normal 1 0 0
    outer loop
      vertex 1 75.2 1
      vertex 1 1 8
      vertex 1 1 1
    endloop
  endfacet
  facet normal -1 0 0
    outer loop
      vertex 56.15 1 1
      vertex 56.15 75.2 8
      vertex 56.15 75.2 1
    endloop
  endfacet
  facet normal -1 -0 0
    outer loop
      vertex 56.15 75.2 8
      vertex 56.15 1 1
      vertex 56.15 1 8
    endloop
  endfacet
  facet normal -0 0 1
    outer loop
      vertex 35.869 30.6579 1
      vertex 56.15 1 1
      vertex 56.15 75.2 1
    endloop
  endfacet
  facet normal -0 0 1
    outer loop
      vertex 35.8862 30.1107 1
      vertex 56.15 1 1
      vertex 35.8965 30.2201 1
    endloop
  endfacet
  facet normal -0 -0 1
    outer loop
      vertex 35.9 30.33 1
      vertex 56.15 1 1
      vertex 35.8965 30.4399 1
    endloop
  endfacet
  facet normal -0 0 1
    outer loop
      vertex 35.8965 30.2201 1
      vertex 56.15 1 1
      vertex 35.9 30.33 1
    endloop
  endfacet
  facet normal 0 0 1
    outer loop
      vertex 56.15 1 1
      vertex 35.8862 30.5493 1
      vertex 35.8965 30.4399 1
    endloop
  endfacet
  facet normal 0 0 1
    outer loop
      vertex 56.15 1 1
      vertex 35.869 30.6579 1
      vertex 35.8862 30.5493 1
    endloop
  endfacet
  facet normal 0 0 1
    outer loop
      vertex 56.15 75.2 1
      vertex 35.845 30.7652 1
      vertex 35.869 30.6579 1
    endloop
  endfacet
  facet normal 0 0 1
    outer loop
      vertex 56.15 75.2 1
      vertex 35.8143 30.8708 1
      vertex 35.845 30.7652 1
    endloop
  endfacet
  facet normal 0 0 1
    outer loop
      vertex 56.15 75.2 1
      vertex 35.7771 30.9742 1
      vertex 35.8143 30.8708 1
    endloop
  endfacet
  facet normal 0 0 1
    outer loop
      vertex 56.15 75.2 1
      vertex 35.7334 31.0751 1
      vertex 35.7771 30.9742 1
    endloop
  endfacet
  facet normal 0 0 1
    outer loop
      vertex 56.15 75.2 1
      vertex 35.6835 31.1731 1
      vertex 35.7334 31.0751 1
    endloop
  endfacet
  facet normal 0 0 1
    outer loop
      vertex 56.15 75.2 1
      vertex 35.6276 31.2677 1
      vertex 35.6835 31.1731 1
    endloop
  endfacet
  facet normal 0 0 1
    outer loop
      vertex 56.15 75.2 1
      vertex 35.5658 31.3586 1
      vertex 35.6276 31.2677 1
    endloop
  endfacet
  facet normal 0 0 1
    outer loop
      vertex 56.15 75.2 1
      vertex 35.4984 31.4455 1
      vertex 35.5658 31.3586 1
    endloop
  endfacet
  facet normal 0 0 1
    outer loop
      vertex 56.15 75.2 1
      vertex 35.4257 31.528 1
      vertex 35.4984 31.4455 1
    endloop
  endfacet
  facet normal 0 0 1
    outer loop
      vertex 56.15 75.2 1
      vertex 35.348 31.6057 1
      vertex 35.4257 31.528 1
    endloop
  endfacet
  facet normal 0 0 1
    outer loop
      vertex 56.15 75.2 1
      vertex 35.2655 31.6784 1
      vertex 35.348 31.6057 1
    endloop
  endfacet
  facet normal 0 0 1
    outer loop
      vertex 56.15 75.2 1
      vertex 35.1786 31.7458 1
      vertex 35.2655 31.6784 1
    endloop
  endfacet
  facet normal 0 0 1
    outer loop
      vertex 56.15 75.2 1
      vertex 35.0877 31.8076 1
      vertex 35.1786 31.7458 1
    endloop
  endfacet
  facet normal 0 0 1
    outer loop
      vertex 56.15 75.2 1
      vertex 34.9931 31.8635 1
      vertex 35.0877 31.8076 1
    endloop
  endfacet
  facet normal 0 0 1
    outer loop
      vertex 56.15 75.2 1
      vertex 34.8951 31.9134 1
      vertex 34.9931 31.8635 1
    endloop
  endfacet
  facet normal 0 0 1
    outer loop
      vertex 56.15 75.2 1
      vertex 34.7942 31.9571 1
      vertex 34.8951 31.9134 1
    endloop
  endfacet
  facet normal 0 0 1
    outer loop
      vertex 56.15 75.2 1
      vertex 34.6908 31.9943 1
      vertex 34.7942 31.9571 1
    endloop
  endfacet
  facet normal 0 0 1
    outer loop
      vertex 56.15 75.2 1
      vertex 34.5852 32.025 1
      vertex 34.6908 31.9943 1
    endloop
  endfacet
  facet normal 0 0 1
    outer loop
      vertex 56.15 75.2 1
      vertex 34.4779 32.049 1
      vertex 34.5852 32.025 1
    endloop
  endfacet
  facet normal 0 0 1
    outer loop
      vertex 56.15 75.2 1
      vertex 34.3693 32.0662 1
      vertex 34.4779 32.049 1
    endloop
  endfacet
  facet normal 0 0 1
    outer loop
      vertex 56.15 75.2 1
      vertex 34.2599 32.0765 1
      vertex 34.3693 32.0662 1
    endloop
  endfacet
  facet normal 0 0 1
    outer loop
      vertex 56.15 75.2 1
      vertex 34.15 32.08 1
      vertex 34.2599 32.0765 1
    endloop
  endfacet
  facet normal 0 0 1
    outer loop
      vertex 56.15 75.2 1
      vertex 34.0401 32.0765 1
      vertex 34.15 32.08 1
    endloop
  endfacet
  facet normal 0 0 1
    outer loop
      vertex 56.15 75.2 1
      vertex 33.9307 32.0662 1
      vertex 34.0401 32.0765 1
    endloop
  endfacet
  facet normal 0 0 1
    outer loop
      vertex 56.15 75.2 1
      vertex 33.8221 32.049 1
      vertex 33.9307 32.0662 1
    endloop
  endfacet
  facet normal -0 0 1
    outer loop
      vertex 1 75.2 1
      vertex 33.8221 32.049 1
      vertex 56.15 75.2 1
    endloop
  endfacet
  facet normal 0 0 1
    outer loop
      vertex 33.8221 32.049 1
      vertex 1 75.2 1
      vertex 33.7148 32.025 1
    endloop
  endfacet
  facet normal 0 0 1
    outer loop
      vertex 33.7148 32.025 1
      vertex 1 75.2 1
      vertex 33.6092 31.9943 1
    endloop
  endfacet
  facet normal 0 0 1
    outer loop
      vertex 33.6092 31.9943 1
      vertex 1 75.2 1
      vertex 33.5058 31.9571 1
    endloop
  endfacet
  facet normal 0 0 1
    outer loop
      vertex 33.5058 31.9571 1
      vertex 1 75.2 1
      vertex 33.4049 31.9134 1
    endloop
  endfacet
  facet normal 0 0 1
    outer loop
      vertex 33.4049 31.9134 1
      vertex 1 75.2 1
      vertex 33.3069 31.8635 1
    endloop
  endfacet
  facet normal 0 0 1
    outer loop
      vertex 33.3069 31.8635 1
      vertex 1 75.2 1
      vertex 33.2123 31.8076 1
    endloop
  endfacet
  facet normal 0 0 1
    outer loop
      vertex 33.2123 31.8076 1
      vertex 1 75.2 1
      vertex 33.1214 31.7458 1
    endloop
  endfacet
  facet normal 0 0 1
    outer loop
      vertex 33.1214 31.7458 1
      vertex 1 75.2 1
      vertex 33.0345 31.6784 1
    endloop
  endfacet
  facet normal 0 0 1
    outer loop
      vertex 33.0345 31.6784 1
      vertex 1 75.2 1
      vertex 32.952 31.6057 1
    endloop
  endfacet
  facet normal 0 0 1
    outer loop
      vertex 32.952 31.6057 1
      vertex 1 75.2 1
      vertex 32.8743 31.528 1
    endloop
  endfacet
  facet normal 0 0 1
    outer loop
      vertex 32.8743 31.528 1
      vertex 1 75.2 1
      vertex 32.8016 31.4455 1
    endloop
  endfacet
  facet normal 0 0 1
    outer loop
      vertex 32.8016 31.4455 1
      vertex 1 75.2 1
      vertex 32.7342 31.3586 1
    endloop
  endfacet
  facet normal 0 0 1
    outer loop
      vertex 32.7342 31.3586 1
      vertex 1 75.2 1
      vertex 32.6724 31.2677 1
    endloop
  endfacet
  facet normal 0 0 1
    outer loop
      vertex 1 1 1
      vertex 32.4 30.33 1
      vertex 32.4035 30.4399 1
    endloop
  endfacet
  facet normal 0 0 1
    outer loop
      vertex 1 1 1
      vertex 32.4035 30.4399 1
      vertex 32.4138 30.5493 1
    endloop
  endfacet
  facet normal 0 0 1
    outer loop
      vertex 1 1 1
      vertex 32.4138 30.5493 1
      vertex 32.431 30.6579 1
    endloop
  endfacet
  facet normal 0 0 1
    outer loop
      vertex 1 75.2 1
      vertex 32.431 30.6579 1
      vertex 32.455 30.7652 1
    endloop
  endfacet
  facet normal 0 0 1
    outer loop
      vertex 32.6724 31.2677 1
      vertex 1 75.2 1
      vertex 32.6165 31.1731 1
    endloop
  endfacet
  facet normal 0 0 1
    outer loop
      vertex 1 75.2 1
      vertex 32.5666 31.0751 1
      vertex 32.6165 31.1731 1
    endloop
  endfacet
  facet normal 0 0 1
    outer loop
      vertex 1 75.2 1
      vertex 32.5229 30.9742 1
      vertex 32.5666 31.0751 1
    endloop
  endfacet
  facet normal 0 0 1
    outer loop
      vertex 1 75.2 1
      vertex 32.4856 30.8708 1
      vertex 32.5229 30.9742 1
    endloop
  endfacet
  facet normal 0 0 1
    outer loop
      vertex 1 75.2 1
      vertex 32.455 30.7652 1
      vertex 32.4856 30.8708 1
    endloop
  endfacet
  facet normal 0 0 1
    outer loop
      vertex 32.431 30.6579 1
      vertex 1 75.2 1
      vertex 1 1 1
    endloop
  endfacet
  facet normal 0 0 1
    outer loop
      vertex 32.4 30.33 1
      vertex 1 1 1
      vertex 25.15 1 1
    endloop
  endfacet
  facet normal -0 0 1
    outer loop
      vertex 35.869 30.0021 1
      vertex 56.15 1 1
      vertex 35.8862 30.1107 1
    endloop
  endfacet
  facet normal -0 0 1
    outer loop
      vertex 35.845 29.8948 1
      vertex 56.15 1 1
      vertex 35.869 30.0021 1
    endloop
  endfacet
  facet normal -0 0 1
    outer loop
      vertex 35.8143 29.7892 1
      vertex 56.15 1 1
      vertex 35.845 29.8948 1
    endloop
  endfacet
  facet normal -0 0 1
    outer loop
      vertex 35.7771 29.6858 1
      vertex 56.15 1 1
      vertex 35.8143 29.7892 1
    endloop
  endfacet
  facet normal -0 0 1
    outer loop
      vertex 35.7334 29.5849 1
      vertex 56.15 1 1
      vertex 35.7771 29.6858 1
    endloop
  endfacet
  facet normal -0 0 1
    outer loop
      vertex 35.6835 29.4869 1
      vertex 56.15 1 1
      vertex 35.7334 29.5849 1
    endloop
  endfacet
  facet normal 0 0 1
    outer loop
      vertex 56.15 1 1
      vertex 35.6835 29.4869 1
      vertex 48.15 1 1
    endloop
  endfacet
  facet normal -0 0 1
    outer loop
      vertex 35.6276 29.3923 1
      vertex 48.15 1 1
      vertex 35.6835 29.4869 1
    endloop
  endfacet
  facet normal -0 0 1
    outer loop
      vertex 35.5658 29.3014 1
      vertex 48.15 1 1
      vertex 35.6276 29.3923 1
    endloop
  endfacet
  facet normal -0 0 1
    outer loop
      vertex 35.4984 29.2145 1
      vertex 48.15 1 1
      vertex 35.5658 29.3014 1
    endloop
  endfacet
  facet normal -0 0 1
    outer loop
      vertex 35.4257 29.132 1
      vertex 48.15 1 1
      vertex 35.4984 29.2145 1
    endloop
  endfacet
  facet normal -0 0 1
    outer loop
      vertex 35.348 29.0543 1
      vertex 48.15 1 1
      vertex 35.4257 29.132 1
    endloop
  endfacet
  facet normal -0 0 1
    outer loop
      vertex 35.2655 28.9816 1
      vertex 48.15 1 1
      vertex 35.348 29.0543 1
    endloop
  endfacet
  facet normal -0 0 1
    outer loop
      vertex 35.1786 28.9142 1
      vertex 48.15 1 1
      vertex 35.2655 28.9816 1
    endloop
  endfacet
  facet normal -0 0 1
    outer loop
      vertex 35.0877 28.8524 1
      vertex 48.15 1 1
      vertex 35.1786 28.9142 1
    endloop
  endfacet
  facet normal -0 0 1
    outer loop
      vertex 34.9931 28.7965 1
      vertex 48.15 1 1
      vertex 35.0877 28.8524 1
    endloop
  endfacet
  facet normal -0 0 1
    outer loop
      vertex 34.8951 28.7466 1
      vertex 48.15 1 1
      vertex 34.9931 28.7965 1
    endloop
  endfacet
  facet normal -0 0 1
    outer loop
      vertex 34.7942 28.7029 1
      vertex 48.15 1 1
      vertex 34.8951 28.7466 1
    endloop
  endfacet
  facet normal -0 0 1
    outer loop
      vertex 34.6908 28.6656 1
      vertex 48.15 1 1
      vertex 34.7942 28.7029 1
    endloop
  endfacet
  facet normal -0 0 1
    outer loop
      vertex 34.5852 28.635 1
      vertex 48.15 1 1
      vertex 34.6908 28.6656 1
    endloop
  endfacet
  facet normal -0 0 1
    outer loop
      vertex 34.4779 28.611 1
      vertex 48.15 1 1
      vertex 34.5852 28.635 1
    endloop
  endfacet
  facet normal -0 0 1
    outer loop
      vertex 34.3693 28.5938 1
      vertex 48.15 1 1
      vertex 34.4779 28.611 1
    endloop
  endfacet
  facet normal 0 0 1
    outer loop
      vertex 25.15 1 1
      vertex 48.15 1 1
      vertex 34.3693 28.5938 1
    endloop
  endfacet
  facet normal 0 0 1
    outer loop
      vertex 25.15 1 1
      vertex 34.3693 28.5938 1
      vertex 34.2599 28.5835 1
    endloop
  endfacet
  facet normal 0 0 1
    outer loop
      vertex 25.15 1 1
      vertex 34.2599 28.5835 1
      vertex 34.15 28.58 1
    endloop
  endfacet
  facet normal 0 0 1
    outer loop
      vertex 25.15 1 1
      vertex 34.15 28.58 1
      vertex 34.0401 28.5835 1
    endloop
  endfacet
  facet normal 0 0 1
    outer loop
      vertex 25.15 1 1
      vertex 34.0401 28.5835 1
      vertex 33.9307 28.5938 1
    endloop
  endfacet
  facet normal 0 0 1
    outer loop
      vertex 25.15 1 1
      vertex 33.9307 28.5938 1
      vertex 33.8221 28.611 1
    endloop
  endfacet
  facet normal 0 0 1
    outer loop
      vertex 25.15 1 1
      vertex 33.8221 28.611 1
      vertex 33.7148 28.635 1
    endloop
  endfacet
  facet normal 0 0 1
    outer loop
      vertex 25.15 1 1
      vertex 33.7148 28.635 1
      vertex 33.6092 28.6656 1
    endloop
  endfacet
  facet normal 0 0 1
    outer loop
      vertex 25.15 1 1
      vertex 33.6092 28.6656 1
      vertex 33.5058 28.7029 1
    endloop
  endfacet
  facet normal 0 0 1
    outer loop
      vertex 25.15 1 1
      vertex 33.5058 28.7029 1
      vertex 33.4049 28.7466 1
    endloop
  endfacet
  facet normal 0 0 1
    outer loop
      vertex 25.15 1 1
      vertex 33.4049 28.7466 1
      vertex 33.3069 28.7965 1
    endloop
  endfacet
  facet normal 0 0 1
    outer loop
      vertex 25.15 1 1
      vertex 33.3069 28.7965 1
      vertex 33.2123 28.8524 1
    endloop
  endfacet
  facet normal 0 0 1
    outer loop
      vertex 25.15 1 1
      vertex 33.2123 28.8524 1
      vertex 33.1214 28.9142 1
    endloop
  endfacet
  facet normal 0 0 1
    outer loop
      vertex 25.15 1 1
      vertex 33.1214 28.9142 1
      vertex 33.0345 28.9816 1
    endloop
  endfacet
  facet normal 0 0 1
    outer loop
      vertex 25.15 1 1
      vertex 33.0345 28.9816 1
      vertex 32.952 29.0543 1
    endloop
  endfacet
  facet normal 0 0 1
    outer loop
      vertex 25.15 1 1
      vertex 32.952 29.0543 1
      vertex 32.8743 29.132 1
    endloop
  endfacet
  facet normal 0 0 1
    outer loop
      vertex 25.15 1 1
      vertex 32.8743 29.132 1
      vertex 32.8016 29.2145 1
    endloop
  endfacet
  facet normal 0 0 1
    outer loop
      vertex 25.15 1 1
      vertex 32.8016 29.2145 1
      vertex 32.7342 29.3014 1
    endloop
  endfacet
  facet normal 0 0 1
    outer loop
      vertex 25.15 1 1
      vertex 32.7342 29.3014 1
      vertex 32.6724 29.3923 1
    endloop
  endfacet
  facet normal 0 0 1
    outer loop
      vertex 25.15 1 1
      vertex 32.6724 29.3923 1
      vertex 32.6165 29.4869 1
    endloop
  endfacet
  facet normal 0 0 1
    outer loop
      vertex 25.15 1 1
      vertex 32.4035 30.2201 1
      vertex 32.4 30.33 1
    endloop
  endfacet
  facet normal 0 0 1
    outer loop
      vertex 25.15 1 1
      vertex 32.4138 30.1107 1
      vertex 32.4035 30.2201 1
    endloop
  endfacet
  facet normal 0 0 1
    outer loop
      vertex 25.15 1 1
      vertex 32.431 30.0021 1
      vertex 32.4138 30.1107 1
    endloop
  endfacet
  facet normal 0 0 1
    outer loop
      vertex 25.15 1 1
      vertex 32.455 29.8948 1
      vertex 32.431 30.0021 1
    endloop
  endfacet
  facet normal 0 0 1
    outer loop
      vertex 25.15 1 1
      vertex 32.4856 29.7892 1
      vertex 32.455 29.8948 1
    endloop
  endfacet
  facet normal 0 0 1
    outer loop
      vertex 25.15 1 1
      vertex 32.5229 29.6858 1
      vertex 32.4856 29.7892 1
    endloop
  endfacet
  facet normal 0 0 1
    outer loop
      vertex 25.15 1 1
      vertex 32.5666 29.5849 1
      vertex 32.5229 29.6858 1
    endloop
  endfacet
  facet normal 0 0 1
    outer loop
      vertex 25.15 1 1
      vertex 32.6165 29.4869 1
      vertex 32.5666 29.5849 1
    endloop
  endfacet
  facet normal 0 0 1
    outer loop
      vertex 48.15 1 1
      vertex 25.15 1 1
      vertex 48.15 0 1
    endloop
  endfacet
  facet normal 0 0 1
    outer loop
      vertex 48.15 0 1
      vertex 25.15 1 1
      vertex 25.15 0 1
    endloop
  endfacet
  facet normal 0 1 -0
    outer loop
      vertex 25.15 1 1
      vertex 1 1 8
      vertex 25.15 1 8
    endloop
  endfacet
  facet normal 0 1 0
    outer loop
      vertex 1 1 8
      vertex 25.15 1 1
      vertex 1 1 1
    endloop
  endfacet
  facet normal 0 1 -0
    outer loop
      vertex 56.15 1 1
      vertex 48.15 1 8
      vertex 56.15 1 8
    endloop
  endfacet
  facet normal 0 1 0
    outer loop
      vertex 48.15 1 8
      vertex 56.15 1 1
      vertex 48.15 1 1
    endloop
  endfacet
  facet normal 0 -1 0
    outer loop
      vertex 1 75.2 1
      vertex 56.15 75.2 8
      vertex 1 75.2 8
    endloop
  endfacet
  facet normal 0 -1 -0
    outer loop
      vertex 56.15 75.2 8
      vertex 1 75.2 1
      vertex 56.15 75.2 1
    endloop
  endfacet
  facet normal 1 -0 0
    outer loop
      vertex 25.15 0 8
      vertex 25.15 1 1
      vertex 25.15 1 8
    endloop
  endfacet
  facet normal 1 0 0
    outer loop
      vertex 25.15 1 1
      vertex 25.15 0 8
      vertex 25.15 0 1
    endloop
  endfacet
  facet normal -1 0 0
    outer loop
      vertex 48.15 0 1
      vertex 48.15 1 8
      vertex 48.15 1 1
    endloop
  endfacet
  facet normal -1 -0 0
    outer loop
      vertex 48.15 1 8
      vertex 48.15 0 1
      vertex 48.15 0 8
    endloop
  endfacet
  facet normal -0.999493 -0.031831 0
    outer loop
      vertex 35.9 30.33 0
      vertex 35.8965 30.4399 1
      vertex 35.8965 30.4399 0
    endloop
  endfacet
  facet normal -0.999493 -0.031831 0
    outer loop
      vertex 35.8965 30.4399 1
      vertex 35.9 30.33 0
      vertex 35.9 30.33 1
    endloop
  endfacet
  facet normal 0.031831 -0.999493 0
    outer loop
      vertex 34.0401 32.0765 0
      vertex 34.15 32.08 1
      vertex 34.0401 32.0765 1
    endloop
  endfacet
  facet normal 0.031831 -0.999493 0
    outer loop
      vertex 34.15 32.08 1
      vertex 34.0401 32.0765 0
      vertex 34.15 32.08 0
    endloop
  endfacet
  facet normal -0.66114 -0.750262 0
    outer loop
      vertex 35.2655 31.6784 0
      vertex 35.348 31.6057 1
      vertex 35.2655 31.6784 1
    endloop
  endfacet
  facet normal -0.66114 -0.750262 -0
    outer loop
      vertex 35.348 31.6057 1
      vertex 35.2655 31.6784 0
      vertex 35.348 31.6057 0
    endloop
  endfacet
  facet normal 0.750262 -0.66114 0
    outer loop
      vertex 32.8016 31.4455 1
      vertex 32.8743 31.528 0
      vertex 32.8743 31.528 1
    endloop
  endfacet
  facet normal 0.750262 -0.66114 0
    outer loop
      vertex 32.8743 31.528 0
      vertex 32.8016 31.4455 1
      vertex 32.8016 31.4455 0
    endloop
  endfacet
  facet normal 0.397429 -0.917633 0
    outer loop
      vertex 33.4049 31.9134 0
      vertex 33.5058 31.9571 1
      vertex 33.4049 31.9134 1
    endloop
  endfacet
  facet normal 0.397429 -0.917633 0
    outer loop
      vertex 33.5058 31.9571 1
      vertex 33.4049 31.9134 0
      vertex 33.5058 31.9571 0
    endloop
  endfacet
  facet normal -0.917633 -0.397429 0
    outer loop
      vertex 35.7771 30.9742 0
      vertex 35.7334 31.0751 1
      vertex 35.7334 31.0751 0
    endloop
  endfacet
  facet normal -0.917633 -0.397429 0
    outer loop
      vertex 35.7334 31.0751 1
      vertex 35.7771 30.9742 0
      vertex 35.7771 30.9742 1
    endloop
  endfacet
  facet normal -0.338526 -0.940957 0
    outer loop
      vertex 34.6908 31.9943 0
      vertex 34.7942 31.9571 1
      vertex 34.6908 31.9943 1
    endloop
  endfacet
  facet normal -0.338526 -0.940957 -0
    outer loop
      vertex 34.7942 31.9571 1
      vertex 34.6908 31.9943 0
      vertex 34.7942 31.9571 0
    endloop
  endfacet
  facet normal -0.562235 -0.826977 0
    outer loop
      vertex 35.0877 31.8076 0
      vertex 35.1786 31.7458 1
      vertex 35.0877 31.8076 1
    endloop
  endfacet
  facet normal -0.562235 -0.826977 -0
    outer loop
      vertex 35.1786 31.7458 1
      vertex 35.0877 31.8076 0
      vertex 35.1786 31.7458 0
    endloop
  endfacet
  facet normal 0.89113 -0.453749 0
    outer loop
      vertex 32.5666 31.0751 1
      vertex 32.6165 31.1731 0
      vertex 32.6165 31.1731 1
    endloop
  endfacet
  facet normal 0.89113 -0.453749 0
    outer loop
      vertex 32.6165 31.1731 0
      vertex 32.5666 31.0751 1
      vertex 32.5666 31.0751 0
    endloop
  endfacet
  facet normal 0.860927 -0.508729 0
    outer loop
      vertex 32.6165 31.1731 1
      vertex 32.6724 31.2677 0
      vertex 32.6724 31.2677 1
    endloop
  endfacet
  facet normal 0.860927 -0.508729 0
    outer loop
      vertex 32.6724 31.2677 0
      vertex 32.6165 31.1731 1
      vertex 32.6165 31.1731 0
    endloop
  endfacet
  facet normal 0.218278 -0.975887 0
    outer loop
      vertex 33.7148 32.025 0
      vertex 33.8221 32.049 1
      vertex 33.7148 32.025 1
    endloop
  endfacet
  facet normal 0.218278 -0.975887 0
    outer loop
      vertex 33.8221 32.049 1
      vertex 33.7148 32.025 0
      vertex 33.8221 32.049 0
    endloop
  endfacet
  facet normal -0.975887 0.218278 0
    outer loop
      vertex 35.845 29.8948 0
      vertex 35.869 30.0021 1
      vertex 35.869 30.0021 0
    endloop
  endfacet
  facet normal -0.975887 0.218278 0
    outer loop
      vertex 35.869 30.0021 1
      vertex 35.845 29.8948 0
      vertex 35.845 29.8948 1
    endloop
  endfacet
  facet normal 0.0937354 0.995597 -0
    outer loop
      vertex 34.0401 28.5835 0
      vertex 33.9307 28.5938 1
      vertex 34.0401 28.5835 1
    endloop
  endfacet
  facet normal 0.0937354 0.995597 0
    outer loop
      vertex 33.9307 28.5938 1
      vertex 34.0401 28.5835 0
      vertex 33.9307 28.5938 0
    endloop
  endfacet
  facet normal -0.975887 -0.218278 0
    outer loop
      vertex 35.869 30.6579 0
      vertex 35.845 30.7652 1
      vertex 35.845 30.7652 0
    endloop
  endfacet
  facet normal -0.975887 -0.218278 0
    outer loop
      vertex 35.845 30.7652 1
      vertex 35.869 30.6579 0
      vertex 35.869 30.6579 1
    endloop
  endfacet
  facet normal -0.750262 -0.66114 0
    outer loop
      vertex 35.4984 31.4455 0
      vertex 35.4257 31.528 1
      vertex 35.4257 31.528 0
    endloop
  endfacet
  facet normal -0.750262 -0.66114 0
    outer loop
      vertex 35.4257 31.528 1
      vertex 35.4984 31.4455 0
      vertex 35.4984 31.4455 1
    endloop
  endfacet
  facet normal -0.826977 -0.562235 0
    outer loop
      vertex 35.6276 31.2677 0
      vertex 35.5658 31.3586 1
      vertex 35.5658 31.3586 0
    endloop
  endfacet
  facet normal -0.826977 -0.562235 0
    outer loop
      vertex 35.5658 31.3586 1
      vertex 35.6276 31.2677 0
      vertex 35.6276 31.2677 1
    endloop
  endfacet
  facet normal -0.15643 -0.987689 0
    outer loop
      vertex 34.3693 32.0662 0
      vertex 34.4779 32.049 1
      vertex 34.3693 32.0662 1
    endloop
  endfacet
  facet normal -0.15643 -0.987689 -0
    outer loop
      vertex 34.4779 32.049 1
      vertex 34.3693 32.0662 0
      vertex 34.4779 32.049 0
    endloop
  endfacet
  facet normal -0.0937354 -0.995597 0
    outer loop
      vertex 34.2599 32.0765 0
      vertex 34.3693 32.0662 1
      vertex 34.2599 32.0765 1
    endloop
  endfacet
  facet normal -0.0937354 -0.995597 -0
    outer loop
      vertex 34.3693 32.0662 1
      vertex 34.2599 32.0765 0
      vertex 34.3693 32.0662 0
    endloop
  endfacet
  facet normal -0.61287 -0.790184 0
    outer loop
      vertex 35.1786 31.7458 0
      vertex 35.2655 31.6784 1
      vertex 35.1786 31.7458 1
    endloop
  endfacet
  facet normal -0.61287 -0.790184 -0
    outer loop
      vertex 35.2655 31.6784 1
      vertex 35.1786 31.7458 0
      vertex 35.2655 31.6784 0
    endloop
  endfacet
  facet normal 0.975887 -0.218278 0
    outer loop
      vertex 32.431 30.6579 1
      vertex 32.455 30.7652 0
      vertex 32.455 30.7652 1
    endloop
  endfacet
  facet normal 0.975887 -0.218278 0
    outer loop
      vertex 32.455 30.7652 0
      vertex 32.431 30.6579 1
      vertex 32.431 30.6579 0
    endloop
  endfacet
  facet normal 0.826977 -0.562235 0
    outer loop
      vertex 32.6724 31.2677 1
      vertex 32.7342 31.3586 0
      vertex 32.7342 31.3586 1
    endloop
  endfacet
  facet normal 0.826977 -0.562235 0
    outer loop
      vertex 32.7342 31.3586 0
      vertex 32.6724 31.2677 1
      vertex 32.6724 31.2677 0
    endloop
  endfacet
  facet normal 0.960488 -0.278323 0
    outer loop
      vertex 32.455 30.7652 1
      vertex 32.4856 30.8708 0
      vertex 32.4856 30.8708 1
    endloop
  endfacet
  facet normal 0.960488 -0.278323 0
    outer loop
      vertex 32.4856 30.8708 0
      vertex 32.455 30.7652 1
      vertex 32.455 30.7652 0
    endloop
  endfacet
  facet normal 0.999493 0.031831 0
    outer loop
      vertex 32.4035 30.2201 1
      vertex 32.4 30.33 0
      vertex 32.4 30.33 1
    endloop
  endfacet
  facet normal 0.999493 0.031831 0
    outer loop
      vertex 32.4 30.33 0
      vertex 32.4035 30.2201 1
      vertex 32.4035 30.2201 0
    endloop
  endfacet
  facet normal 0.999493 -0.031831 0
    outer loop
      vertex 32.4 30.33 1
      vertex 32.4035 30.4399 0
      vertex 32.4035 30.4399 1
    endloop
  endfacet
  facet normal 0.999493 -0.031831 0
    outer loop
      vertex 32.4035 30.4399 0
      vertex 32.4 30.33 1
      vertex 32.4 30.33 0
    endloop
  endfacet
  facet normal 0.508729 -0.860927 0
    outer loop
      vertex 33.2123 31.8076 0
      vertex 33.3069 31.8635 1
      vertex 33.2123 31.8076 1
    endloop
  endfacet
  facet normal 0.508729 -0.860927 0
    outer loop
      vertex 33.3069 31.8635 1
      vertex 33.2123 31.8076 0
      vertex 33.3069 31.8635 0
    endloop
  endfacet
  facet normal 0.562235 -0.826977 0
    outer loop
      vertex 33.1214 31.7458 0
      vertex 33.2123 31.8076 1
      vertex 33.1214 31.7458 1
    endloop
  endfacet
  facet normal 0.562235 -0.826977 0
    outer loop
      vertex 33.2123 31.8076 1
      vertex 33.1214 31.7458 0
      vertex 33.2123 31.8076 0
    endloop
  endfacet
  facet normal 0.66114 -0.750262 0
    outer loop
      vertex 32.952 31.6057 0
      vertex 33.0345 31.6784 1
      vertex 32.952 31.6057 1
    endloop
  endfacet
  facet normal 0.66114 -0.750262 0
    outer loop
      vertex 33.0345 31.6784 1
      vertex 32.952 31.6057 0
      vertex 33.0345 31.6784 0
    endloop
  endfacet
  facet normal 0.338526 -0.940957 0
    outer loop
      vertex 33.5058 31.9571 0
      vertex 33.6092 31.9943 1
      vertex 33.5058 31.9571 1
    endloop
  endfacet
  facet normal 0.338526 -0.940957 0
    outer loop
      vertex 33.6092 31.9943 1
      vertex 33.5058 31.9571 0
      vertex 33.6092 31.9943 0
    endloop
  endfacet
  facet normal 0.0937354 -0.995597 0
    outer loop
      vertex 33.9307 32.0662 0
      vertex 34.0401 32.0765 1
      vertex 33.9307 32.0662 1
    endloop
  endfacet
  facet normal 0.0937354 -0.995597 0
    outer loop
      vertex 34.0401 32.0765 1
      vertex 33.9307 32.0662 0
      vertex 34.0401 32.0765 0
    endloop
  endfacet
  facet normal -0.790184 0.61287 0
    outer loop
      vertex 35.4984 29.2145 0
      vertex 35.5658 29.3014 1
      vertex 35.5658 29.3014 0
    endloop
  endfacet
  facet normal -0.790184 0.61287 0
    outer loop
      vertex 35.5658 29.3014 1
      vertex 35.4984 29.2145 0
      vertex 35.4984 29.2145 1
    endloop
  endfacet
  facet normal -0.0937354 0.995597 0
    outer loop
      vertex 34.3693 28.5938 0
      vertex 34.2599 28.5835 1
      vertex 34.3693 28.5938 1
    endloop
  endfacet
  facet normal -0.0937354 0.995597 0
    outer loop
      vertex 34.2599 28.5835 1
      vertex 34.3693 28.5938 0
      vertex 34.2599 28.5835 0
    endloop
  endfacet
  facet normal -0.453749 0.89113 0
    outer loop
      vertex 34.9931 28.7965 0
      vertex 34.8951 28.7466 1
      vertex 34.9931 28.7965 1
    endloop
  endfacet
  facet normal -0.453749 0.89113 0
    outer loop
      vertex 34.8951 28.7466 1
      vertex 34.9931 28.7965 0
      vertex 34.8951 28.7466 0
    endloop
  endfacet
  facet normal -0.15643 0.987689 0
    outer loop
      vertex 34.4779 28.611 0
      vertex 34.3693 28.5938 1
      vertex 34.4779 28.611 1
    endloop
  endfacet
  facet normal -0.15643 0.987689 0
    outer loop
      vertex 34.3693 28.5938 1
      vertex 34.4779 28.611 0
      vertex 34.3693 28.5938 0
    endloop
  endfacet
  facet normal -0.987689 -0.15643 0
    outer loop
      vertex 35.8862 30.5493 0
      vertex 35.869 30.6579 1
      vertex 35.869 30.6579 0
    endloop
  endfacet
  facet normal -0.987689 -0.15643 0
    outer loop
      vertex 35.869 30.6579 1
      vertex 35.8862 30.5493 0
      vertex 35.8862 30.5493 1
    endloop
  endfacet
  facet normal -0.995597 -0.0937354 0
    outer loop
      vertex 35.8965 30.4399 0
      vertex 35.8862 30.5493 1
      vertex 35.8862 30.5493 0
    endloop
  endfacet
  facet normal -0.995597 -0.0937354 0
    outer loop
      vertex 35.8862 30.5493 1
      vertex 35.8965 30.4399 0
      vertex 35.8965 30.4399 1
    endloop
  endfacet
  facet normal -0.960244 -0.279162 0
    outer loop
      vertex 35.845 30.7652 0
      vertex 35.8143 30.8708 1
      vertex 35.8143 30.8708 0
    endloop
  endfacet
  facet normal -0.960244 -0.279162 0
    outer loop
      vertex 35.8143 30.8708 1
      vertex 35.845 30.7652 0
      vertex 35.845 30.7652 1
    endloop
  endfacet
  facet normal -0.940957 -0.338526 0
    outer loop
      vertex 35.8143 30.8708 0
      vertex 35.7771 30.9742 1
      vertex 35.7771 30.9742 0
    endloop
  endfacet
  facet normal -0.940957 -0.338526 0
    outer loop
      vertex 35.7771 30.9742 1
      vertex 35.8143 30.8708 0
      vertex 35.8143 30.8708 1
    endloop
  endfacet
  facet normal -0.707107 -0.707107 0
    outer loop
      vertex 35.4257 31.528 0
      vertex 35.348 31.6057 1
      vertex 35.348 31.6057 0
    endloop
  endfacet
  facet normal -0.707107 -0.707107 0
    outer loop
      vertex 35.348 31.6057 1
      vertex 35.4257 31.528 0
      vertex 35.4257 31.528 1
    endloop
  endfacet
  facet normal -0.790184 -0.61287 0
    outer loop
      vertex 35.5658 31.3586 0
      vertex 35.4984 31.4455 1
      vertex 35.4984 31.4455 0
    endloop
  endfacet
  facet normal -0.790184 -0.61287 0
    outer loop
      vertex 35.4984 31.4455 1
      vertex 35.5658 31.3586 0
      vertex 35.5658 31.3586 1
    endloop
  endfacet
  facet normal -0.860927 -0.508729 0
    outer loop
      vertex 35.6835 31.1731 0
      vertex 35.6276 31.2677 1
      vertex 35.6276 31.2677 0
    endloop
  endfacet
  facet normal -0.860927 -0.508729 0
    outer loop
      vertex 35.6276 31.2677 1
      vertex 35.6835 31.1731 0
      vertex 35.6835 31.1731 1
    endloop
  endfacet
  facet normal -0.89113 -0.453749 0
    outer loop
      vertex 35.7334 31.0751 0
      vertex 35.6835 31.1731 1
      vertex 35.6835 31.1731 0
    endloop
  endfacet
  facet normal -0.89113 -0.453749 0
    outer loop
      vertex 35.6835 31.1731 1
      vertex 35.7334 31.0751 0
      vertex 35.7334 31.0751 1
    endloop
  endfacet
  facet normal -0.279162 -0.960244 0
    outer loop
      vertex 34.5852 32.025 0
      vertex 34.6908 31.9943 1
      vertex 34.5852 32.025 1
    endloop
  endfacet
  facet normal -0.279162 -0.960244 -0
    outer loop
      vertex 34.6908 31.9943 1
      vertex 34.5852 32.025 0
      vertex 34.6908 31.9943 0
    endloop
  endfacet
  facet normal -0.218278 -0.975887 0
    outer loop
      vertex 34.4779 32.049 0
      vertex 34.5852 32.025 1
      vertex 34.4779 32.049 1
    endloop
  endfacet
  facet normal -0.218278 -0.975887 -0
    outer loop
      vertex 34.5852 32.025 1
      vertex 34.4779 32.049 0
      vertex 34.5852 32.025 0
    endloop
  endfacet
  facet normal -0.031831 -0.999493 0
    outer loop
      vertex 34.15 32.08 0
      vertex 34.2599 32.0765 1
      vertex 34.15 32.08 1
    endloop
  endfacet
  facet normal -0.031831 -0.999493 -0
    outer loop
      vertex 34.2599 32.0765 1
      vertex 34.15 32.08 0
      vertex 34.2599 32.0765 0
    endloop
  endfacet
  facet normal -0.453749 -0.89113 0
    outer loop
      vertex 34.8951 31.9134 0
      vertex 34.9931 31.8635 1
      vertex 34.8951 31.9134 1
    endloop
  endfacet
  facet normal -0.453749 -0.89113 -0
    outer loop
      vertex 34.9931 31.8635 1
      vertex 34.8951 31.9134 0
      vertex 34.9931 31.8635 0
    endloop
  endfacet
  facet normal -0.397429 -0.917633 0
    outer loop
      vertex 34.7942 31.9571 0
      vertex 34.8951 31.9134 1
      vertex 34.7942 31.9571 1
    endloop
  endfacet
  facet normal -0.397429 -0.917633 -0
    outer loop
      vertex 34.8951 31.9134 1
      vertex 34.7942 31.9571 0
      vertex 34.8951 31.9134 0
    endloop
  endfacet
  facet normal -0.508729 -0.860927 0
    outer loop
      vertex 34.9931 31.8635 0
      vertex 35.0877 31.8076 1
      vertex 34.9931 31.8635 1
    endloop
  endfacet
  facet normal -0.508729 -0.860927 -0
    outer loop
      vertex 35.0877 31.8076 1
      vertex 34.9931 31.8635 0
      vertex 35.0877 31.8076 0
    endloop
  endfacet
  facet normal 0.790184 -0.61287 0
    outer loop
      vertex 32.7342 31.3586 1
      vertex 32.8016 31.4455 0
      vertex 32.8016 31.4455 1
    endloop
  endfacet
  facet normal 0.790184 -0.61287 0
    outer loop
      vertex 32.8016 31.4455 0
      vertex 32.7342 31.3586 1
      vertex 32.7342 31.3586 0
    endloop
  endfacet
  facet normal 0.940667 -0.339331 0
    outer loop
      vertex 32.4856 30.8708 1
      vertex 32.5229 30.9742 0
      vertex 32.5229 30.9742 1
    endloop
  endfacet
  facet normal 0.940667 -0.339331 0
    outer loop
      vertex 32.5229 30.9742 0
      vertex 32.4856 30.8708 1
      vertex 32.4856 30.8708 0
    endloop
  endfacet
  facet normal 0.987689 -0.15643 0
    outer loop
      vertex 32.4138 30.5493 1
      vertex 32.431 30.6579 0
      vertex 32.431 30.6579 1
    endloop
  endfacet
  facet normal 0.987689 -0.15643 0
    outer loop
      vertex 32.431 30.6579 0
      vertex 32.4138 30.5493 1
      vertex 32.4138 30.5493 0
    endloop
  endfacet
  facet normal 0.61287 -0.790184 0
    outer loop
      vertex 33.0345 31.6784 0
      vertex 33.1214 31.7458 1
      vertex 33.0345 31.6784 1
    endloop
  endfacet
  facet normal 0.61287 -0.790184 0
    outer loop
      vertex 33.1214 31.7458 1
      vertex 33.0345 31.6784 0
      vertex 33.1214 31.7458 0
    endloop
  endfacet
  facet normal 0.15643 -0.987689 0
    outer loop
      vertex 33.8221 32.049 0
      vertex 33.9307 32.0662 1
      vertex 33.8221 32.049 1
    endloop
  endfacet
  facet normal 0.15643 -0.987689 0
    outer loop
      vertex 33.9307 32.0662 1
      vertex 33.8221 32.049 0
      vertex 33.9307 32.0662 0
    endloop
  endfacet
  facet normal -0.89113 0.453749 0
    outer loop
      vertex 35.6835 29.4869 0
      vertex 35.7334 29.5849 1
      vertex 35.7334 29.5849 0
    endloop
  endfacet
  facet normal -0.89113 0.453749 0
    outer loop
      vertex 35.7334 29.5849 1
      vertex 35.6835 29.4869 0
      vertex 35.6835 29.4869 1
    endloop
  endfacet
  facet normal -0.987689 0.15643 0
    outer loop
      vertex 35.869 30.0021 0
      vertex 35.8862 30.1107 1
      vertex 35.8862 30.1107 0
    endloop
  endfacet
  facet normal -0.987689 0.15643 0
    outer loop
      vertex 35.8862 30.1107 1
      vertex 35.869 30.0021 0
      vertex 35.869 30.0021 1
    endloop
  endfacet
  facet normal -0.995597 0.0937354 0
    outer loop
      vertex 35.8862 30.1107 0
      vertex 35.8965 30.2201 1
      vertex 35.8965 30.2201 0
    endloop
  endfacet
  facet normal -0.995597 0.0937354 0
    outer loop
      vertex 35.8965 30.2201 1
      vertex 35.8862 30.1107 0
      vertex 35.8862 30.1107 1
    endloop
  endfacet
  facet normal 0.750262 0.66114 0
    outer loop
      vertex 32.8743 29.132 1
      vertex 32.8016 29.2145 0
      vertex 32.8016 29.2145 1
    endloop
  endfacet
  facet normal 0.750262 0.66114 0
    outer loop
      vertex 32.8016 29.2145 0
      vertex 32.8743 29.132 1
      vertex 32.8743 29.132 0
    endloop
  endfacet
  facet normal 0.790184 0.61287 0
    outer loop
      vertex 32.8016 29.2145 1
      vertex 32.7342 29.3014 0
      vertex 32.7342 29.3014 1
    endloop
  endfacet
  facet normal 0.790184 0.61287 0
    outer loop
      vertex 32.7342 29.3014 0
      vertex 32.8016 29.2145 1
      vertex 32.8016 29.2145 0
    endloop
  endfacet
  facet normal 0.826977 0.562235 0
    outer loop
      vertex 32.7342 29.3014 1
      vertex 32.6724 29.3923 0
      vertex 32.6724 29.3923 1
    endloop
  endfacet
  facet normal 0.826977 0.562235 0
    outer loop
      vertex 32.6724 29.3923 0
      vertex 32.7342 29.3014 1
      vertex 32.7342 29.3014 0
    endloop
  endfacet
  facet normal 0.995597 0.0937354 0
    outer loop
      vertex 32.4138 30.1107 1
      vertex 32.4035 30.2201 0
      vertex 32.4035 30.2201 1
    endloop
  endfacet
  facet normal 0.995597 0.0937354 0
    outer loop
      vertex 32.4035 30.2201 0
      vertex 32.4138 30.1107 1
      vertex 32.4138 30.1107 0
    endloop
  endfacet
  facet normal 0.975887 0.218278 0
    outer loop
      vertex 32.455 29.8948 1
      vertex 32.431 30.0021 0
      vertex 32.431 30.0021 1
    endloop
  endfacet
  facet normal 0.975887 0.218278 0
    outer loop
      vertex 32.431 30.0021 0
      vertex 32.455 29.8948 1
      vertex 32.455 29.8948 0
    endloop
  endfacet
  facet normal -0.397429 0.917633 0
    outer loop
      vertex 34.8951 28.7466 0
      vertex 34.7942 28.7029 1
      vertex 34.8951 28.7466 1
    endloop
  endfacet
  facet normal -0.397429 0.917633 0
    outer loop
      vertex 34.7942 28.7029 1
      vertex 34.8951 28.7466 0
      vertex 34.7942 28.7029 0
    endloop
  endfacet
  facet normal -0.278323 0.960488 0
    outer loop
      vertex 34.6908 28.6656 0
      vertex 34.5852 28.635 1
      vertex 34.6908 28.6656 1
    endloop
  endfacet
  facet normal -0.278323 0.960488 0
    outer loop
      vertex 34.5852 28.635 1
      vertex 34.6908 28.6656 0
      vertex 34.5852 28.635 0
    endloop
  endfacet
  facet normal 0.917633 -0.397429 0
    outer loop
      vertex 32.5229 30.9742 1
      vertex 32.5666 31.0751 0
      vertex 32.5666 31.0751 1
    endloop
  endfacet
  facet normal 0.917633 -0.397429 0
    outer loop
      vertex 32.5666 31.0751 0
      vertex 32.5229 30.9742 1
      vertex 32.5229 30.9742 0
    endloop
  endfacet
  facet normal 0.995597 -0.0937354 0
    outer loop
      vertex 32.4035 30.4399 1
      vertex 32.4138 30.5493 0
      vertex 32.4138 30.5493 1
    endloop
  endfacet
  facet normal 0.995597 -0.0937354 0
    outer loop
      vertex 32.4138 30.5493 0
      vertex 32.4035 30.4399 1
      vertex 32.4035 30.4399 0
    endloop
  endfacet
  facet normal 0.707107 -0.707107 0
    outer loop
      vertex 32.8743 31.528 1
      vertex 32.952 31.6057 0
      vertex 32.952 31.6057 1
    endloop
  endfacet
  facet normal 0.707107 -0.707107 0
    outer loop
      vertex 32.952 31.6057 0
      vertex 32.8743 31.528 1
      vertex 32.8743 31.528 0
    endloop
  endfacet
  facet normal 0.453749 -0.89113 0
    outer loop
      vertex 33.3069 31.8635 0
      vertex 33.4049 31.9134 1
      vertex 33.3069 31.8635 1
    endloop
  endfacet
  facet normal 0.453749 -0.89113 0
    outer loop
      vertex 33.4049 31.9134 1
      vertex 33.3069 31.8635 0
      vertex 33.4049 31.9134 0
    endloop
  endfacet
  facet normal 0.279162 -0.960244 0
    outer loop
      vertex 33.6092 31.9943 0
      vertex 33.7148 32.025 1
      vertex 33.6092 31.9943 1
    endloop
  endfacet
  facet normal 0.279162 -0.960244 0
    outer loop
      vertex 33.7148 32.025 1
      vertex 33.6092 31.9943 0
      vertex 33.7148 32.025 0
    endloop
  endfacet
  facet normal -0.917633 0.397429 0
    outer loop
      vertex 35.7334 29.5849 0
      vertex 35.7771 29.6858 1
      vertex 35.7771 29.6858 0
    endloop
  endfacet
  facet normal -0.917633 0.397429 0
    outer loop
      vertex 35.7771 29.6858 1
      vertex 35.7334 29.5849 0
      vertex 35.7334 29.5849 1
    endloop
  endfacet
  facet normal -0.999493 0.031831 0
    outer loop
      vertex 35.8965 30.2201 0
      vertex 35.9 30.33 1
      vertex 35.9 30.33 0
    endloop
  endfacet
  facet normal -0.999493 0.031831 0
    outer loop
      vertex 35.9 30.33 1
      vertex 35.8965 30.2201 0
      vertex 35.8965 30.2201 1
    endloop
  endfacet
  facet normal -0.707107 0.707107 0
    outer loop
      vertex 35.348 29.0543 0
      vertex 35.4257 29.132 1
      vertex 35.4257 29.132 0
    endloop
  endfacet
  facet normal -0.707107 0.707107 0
    outer loop
      vertex 35.4257 29.132 1
      vertex 35.348 29.0543 0
      vertex 35.348 29.0543 1
    endloop
  endfacet
  facet normal -0.508729 0.860927 0
    outer loop
      vertex 35.0877 28.8524 0
      vertex 34.9931 28.7965 1
      vertex 35.0877 28.8524 1
    endloop
  endfacet
  facet normal -0.508729 0.860927 0
    outer loop
      vertex 34.9931 28.7965 1
      vertex 35.0877 28.8524 0
      vertex 34.9931 28.7965 0
    endloop
  endfacet
  facet normal -0.860927 0.508729 0
    outer loop
      vertex 35.6276 29.3923 0
      vertex 35.6835 29.4869 1
      vertex 35.6835 29.4869 0
    endloop
  endfacet
  facet normal -0.860927 0.508729 0
    outer loop
      vertex 35.6835 29.4869 1
      vertex 35.6276 29.3923 0
      vertex 35.6276 29.3923 1
    endloop
  endfacet
  facet normal -0.826977 0.562235 0
    outer loop
      vertex 35.5658 29.3014 0
      vertex 35.6276 29.3923 1
      vertex 35.6276 29.3923 0
    endloop
  endfacet
  facet normal -0.826977 0.562235 0
    outer loop
      vertex 35.6276 29.3923 1
      vertex 35.5658 29.3014 0
      vertex 35.5658 29.3014 1
    endloop
  endfacet
  facet normal -0.031831 0.999493 0
    outer loop
      vertex 34.2599 28.5835 0
      vertex 34.15 28.58 1
      vertex 34.2599 28.5835 1
    endloop
  endfacet
  facet normal -0.031831 0.999493 0
    outer loop
      vertex 34.15 28.58 1
      vertex 34.2599 28.5835 0
      vertex 34.15 28.58 0
    endloop
  endfacet
  facet normal 0.15643 0.987689 -0
    outer loop
      vertex 33.9307 28.5938 0
      vertex 33.8221 28.611 1
      vertex 33.9307 28.5938 1
    endloop
  endfacet
  facet normal 0.15643 0.987689 0
    outer loop
      vertex 33.8221 28.611 1
      vertex 33.9307 28.5938 0
      vertex 33.8221 28.611 0
    endloop
  endfacet
  facet normal 0.66114 0.750262 -0
    outer loop
      vertex 33.0345 28.9816 0
      vertex 32.952 29.0543 1
      vertex 33.0345 28.9816 1
    endloop
  endfacet
  facet normal 0.66114 0.750262 0
    outer loop
      vertex 32.952 29.0543 1
      vertex 33.0345 28.9816 0
      vertex 32.952 29.0543 0
    endloop
  endfacet
  facet normal 0.397429 0.917633 -0
    outer loop
      vertex 33.5058 28.7029 0
      vertex 33.4049 28.7466 1
      vertex 33.5058 28.7029 1
    endloop
  endfacet
  facet normal 0.397429 0.917633 0
    outer loop
      vertex 33.4049 28.7466 1
      vertex 33.5058 28.7029 0
      vertex 33.4049 28.7466 0
    endloop
  endfacet
  facet normal 0.707107 0.707107 0
    outer loop
      vertex 32.952 29.0543 1
      vertex 32.8743 29.132 0
      vertex 32.8743 29.132 1
    endloop
  endfacet
  facet normal 0.707107 0.707107 0
    outer loop
      vertex 32.8743 29.132 0
      vertex 32.952 29.0543 1
      vertex 32.952 29.0543 0
    endloop
  endfacet
  facet normal 0.917633 0.397429 0
    outer loop
      vertex 32.5666 29.5849 1
      vertex 32.5229 29.6858 0
      vertex 32.5229 29.6858 1
    endloop
  endfacet
  facet normal 0.917633 0.397429 0
    outer loop
      vertex 32.5229 29.6858 0
      vertex 32.5666 29.5849 1
      vertex 32.5666 29.5849 0
    endloop
  endfacet
  facet normal 0.960488 0.278323 0
    outer loop
      vertex 32.4856 29.7892 1
      vertex 32.455 29.8948 0
      vertex 32.455 29.8948 1
    endloop
  endfacet
  facet normal 0.960488 0.278323 0
    outer loop
      vertex 32.455 29.8948 0
      vertex 32.4856 29.7892 1
      vertex 32.4856 29.7892 0
    endloop
  endfacet
  facet normal 0.987689 0.15643 0
    outer loop
      vertex 32.431 30.0021 1
      vertex 32.4138 30.1107 0
      vertex 32.4138 30.1107 1
    endloop
  endfacet
  facet normal 0.987689 0.15643 0
    outer loop
      vertex 32.4138 30.1107 0
      vertex 32.431 30.0021 1
      vertex 32.431 30.0021 0
    endloop
  endfacet
  facet normal -0.960244 0.279162 0
    outer loop
      vertex 35.8143 29.7892 0
      vertex 35.845 29.8948 1
      vertex 35.845 29.8948 0
    endloop
  endfacet
  facet normal -0.960244 0.279162 0
    outer loop
      vertex 35.845 29.8948 1
      vertex 35.8143 29.7892 0
      vertex 35.8143 29.7892 1
    endloop
  endfacet
  facet normal -0.61287 0.790184 0
    outer loop
      vertex 35.2655 28.9816 0
      vertex 35.1786 28.9142 1
      vertex 35.2655 28.9816 1
    endloop
  endfacet
  facet normal -0.61287 0.790184 0
    outer loop
      vertex 35.1786 28.9142 1
      vertex 35.2655 28.9816 0
      vertex 35.1786 28.9142 0
    endloop
  endfacet
  facet normal -0.66114 0.750262 0
    outer loop
      vertex 35.348 29.0543 0
      vertex 35.2655 28.9816 1
      vertex 35.348 29.0543 1
    endloop
  endfacet
  facet normal -0.66114 0.750262 0
    outer loop
      vertex 35.2655 28.9816 1
      vertex 35.348 29.0543 0
      vertex 35.2655 28.9816 0
    endloop
  endfacet
  facet normal 0.031831 0.999493 -0
    outer loop
      vertex 34.15 28.58 0
      vertex 34.0401 28.5835 1
      vertex 34.15 28.58 1
    endloop
  endfacet
  facet normal 0.031831 0.999493 0
    outer loop
      vertex 34.0401 28.5835 1
      vertex 34.15 28.58 0
      vertex 34.0401 28.5835 0
    endloop
  endfacet
  facet normal 0.562235 0.826977 -0
    outer loop
      vertex 33.2123 28.8524 0
      vertex 33.1214 28.9142 1
      vertex 33.2123 28.8524 1
    endloop
  endfacet
  facet normal 0.562235 0.826977 0
    outer loop
      vertex 33.1214 28.9142 1
      vertex 33.2123 28.8524 0
      vertex 33.1214 28.9142 0
    endloop
  endfacet
  facet normal 0.508729 0.860927 -0
    outer loop
      vertex 33.3069 28.7965 0
      vertex 33.2123 28.8524 1
      vertex 33.3069 28.7965 1
    endloop
  endfacet
  facet normal 0.508729 0.860927 0
    outer loop
      vertex 33.2123 28.8524 1
      vertex 33.3069 28.7965 0
      vertex 33.2123 28.8524 0
    endloop
  endfacet
  facet normal 0.860927 0.508729 0
    outer loop
      vertex 32.6724 29.3923 1
      vertex 32.6165 29.4869 0
      vertex 32.6165 29.4869 1
    endloop
  endfacet
  facet normal 0.860927 0.508729 0
    outer loop
      vertex 32.6165 29.4869 0
      vertex 32.6724 29.3923 1
      vertex 32.6724 29.3923 0
    endloop
  endfacet
  facet normal 0.89113 0.453749 0
    outer loop
      vertex 32.6165 29.4869 1
      vertex 32.5666 29.5849 0
      vertex 32.5666 29.5849 1
    endloop
  endfacet
  facet normal 0.89113 0.453749 0
    outer loop
      vertex 32.5666 29.5849 0
      vertex 32.6165 29.4869 1
      vertex 32.6165 29.4869 0
    endloop
  endfacet
  facet normal 0.940667 0.339331 0
    outer loop
      vertex 32.5229 29.6858 1
      vertex 32.4856 29.7892 0
      vertex 32.4856 29.7892 1
    endloop
  endfacet
  facet normal 0.940667 0.339331 0
    outer loop
      vertex 32.4856 29.7892 0
      vertex 32.5229 29.6858 1
      vertex 32.5229 29.6858 0
    endloop
  endfacet
  facet normal -0.339331 0.940667 0
    outer loop
      vertex 34.7942 28.7029 0
      vertex 34.6908 28.6656 1
      vertex 34.7942 28.7029 1
    endloop
  endfacet
  facet normal -0.339331 0.940667 0
    outer loop
      vertex 34.6908 28.6656 1
      vertex 34.7942 28.7029 0
      vertex 34.6908 28.6656 0
    endloop
  endfacet
  facet normal -0.218278 0.975887 0
    outer loop
      vertex 34.5852 28.635 0
      vertex 34.4779 28.611 1
      vertex 34.5852 28.635 1
    endloop
  endfacet
  facet normal -0.218278 0.975887 0
    outer loop
      vertex 34.4779 28.611 1
      vertex 34.5852 28.635 0
      vertex 34.4779 28.611 0
    endloop
  endfacet
  facet normal -0.940957 0.338526 0
    outer loop
      vertex 35.7771 29.6858 0
      vertex 35.8143 29.7892 1
      vertex 35.8143 29.7892 0
    endloop
  endfacet
  facet normal -0.940957 0.338526 0
    outer loop
      vertex 35.8143 29.7892 1
      vertex 35.7771 29.6858 0
      vertex 35.7771 29.6858 1
    endloop
  endfacet
  facet normal -0.562235 0.826977 0
    outer loop
      vertex 35.1786 28.9142 0
      vertex 35.0877 28.8524 1
      vertex 35.1786 28.9142 1
    endloop
  endfacet
  facet normal -0.562235 0.826977 0
    outer loop
      vertex 35.0877 28.8524 1
      vertex 35.1786 28.9142 0
      vertex 35.0877 28.8524 0
    endloop
  endfacet
  facet normal -0.750262 0.66114 0
    outer loop
      vertex 35.4257 29.132 0
      vertex 35.4984 29.2145 1
      vertex 35.4984 29.2145 0
    endloop
  endfacet
  facet normal -0.750262 0.66114 0
    outer loop
      vertex 35.4984 29.2145 1
      vertex 35.4257 29.132 0
      vertex 35.4257 29.132 1
    endloop
  endfacet
  facet normal 0.61287 0.790184 -0
    outer loop
      vertex 33.1214 28.9142 0
      vertex 33.0345 28.9816 1
      vertex 33.1214 28.9142 1
    endloop
  endfacet
  facet normal 0.61287 0.790184 0
    outer loop
      vertex 33.0345 28.9816 1
      vertex 33.1214 28.9142 0
      vertex 33.0345 28.9816 0
    endloop
  endfacet
  facet normal 0.453749 0.89113 -0
    outer loop
      vertex 33.4049 28.7466 0
      vertex 33.3069 28.7965 1
      vertex 33.4049 28.7466 1
    endloop
  endfacet
  facet normal 0.453749 0.89113 0
    outer loop
      vertex 33.3069 28.7965 1
      vertex 33.4049 28.7466 0
      vertex 33.3069 28.7965 0
    endloop
  endfacet
  facet normal 0.218278 0.975887 -0
    outer loop
      vertex 33.8221 28.611 0
      vertex 33.7148 28.635 1
      vertex 33.8221 28.611 1
    endloop
  endfacet
  facet normal 0.218278 0.975887 0
    outer loop
      vertex 33.7148 28.635 1
      vertex 33.8221 28.611 0
      vertex 33.7148 28.635 0
    endloop
  endfacet
  facet normal 0.278323 0.960488 -0
    outer loop
      vertex 33.7148 28.635 0
      vertex 33.6092 28.6656 1
      vertex 33.7148 28.635 1
    endloop
  endfacet
  facet normal 0.278323 0.960488 0
    outer loop
      vertex 33.6092 28.6656 1
      vertex 33.7148 28.635 0
      vertex 33.6092 28.6656 0
    endloop
  endfacet
  facet normal 0.339331 0.940667 -0
    outer loop
      vertex 33.6092 28.6656 0
      vertex 33.5058 28.7029 1
      vertex 33.6092 28.6656 1
    endloop
  endfacet
  facet normal 0.339331 0.940667 0
    outer loop
      vertex 33.5058 28.7029 1
      vertex 33.6092 28.6656 0
      vertex 33.5058 28.7029 0
    endloop
  endfacet
endsolid OpenSCAD_Model
